<?xml version="1.0" standalone="no"?>
<!DOCTYPE svg PUBLIC "-//W3C//DTD SVG 20010904//EN"
 "http://www.w3.org/TR/2001/REC-SVG-20010904/DTD/svg10.dtd">
<svg version="1.0" xmlns="http://www.w3.org/2000/svg"
 width="860.000000pt" height="1065.000000pt" viewBox="0 0 860.000000 1065.000000"
 preserveAspectRatio="xMidYMid meet">
<metadata>
Created by potrace 1.15, written by Peter Selinger 2001-2017
</metadata>
<g transform="translate(0.000000,1065.000000) scale(0.100000,-0.100000)"
fill="#000000" stroke="none">
<path d="M3615 9978 c-167 -60 -559 -255 -710 -353 -102 -67 -180 -105 -215
-105 -8 0 -53 -16 -100 -36 -163 -69 -383 -137 -546 -169 -227 -46 -473 -130
-609 -209 -121 -69 -159 -103 -274 -242 -91 -110 -141 -192 -177 -289 -15 -38
-37 -91 -51 -117 -13 -26 -32 -71 -42 -100 -34 -97 -91 -237 -134 -328 -23
-48 -23 -55 -18 -295 3 -100 -1 -164 -13 -225 -9 -47 -19 -125 -22 -175 -4
-49 -15 -124 -26 -165 -31 -123 -33 -194 -9 -352 12 -79 29 -170 37 -204 14
-56 28 -129 40 -214 17 -114 38 -236 55 -315 10 -49 19 -110 19 -135 0 -25 7
-53 14 -63 11 -14 14 -63 15 -203 0 -109 7 -231 16 -298 9 -62 20 -187 25
-277 15 -244 36 -498 53 -644 9 -71 18 -168 21 -215 3 -47 26 -188 51 -315 47
-234 57 -328 58 -515 1 -87 -1 -490 -3 -567 0 -36 0 -52 0 -339 1 -276 -2
-304 -43 -419 -8 -22 -18 -74 -22 -115 -4 -41 -13 -118 -20 -170 -8 -52 -19
-133 -25 -180 -6 -47 -18 -114 -27 -150 -8 -36 -18 -90 -23 -121 -4 -30 -15
-71 -24 -90 -8 -19 -20 -58 -26 -87 -5 -30 -19 -74 -29 -98 -27 -61 -81 -250
-81 -285 0 -15 -5 -40 -11 -56 -16 -39 -39 -178 -39 -236 0 -44 2 -48 22 -45
13 2 24 11 26 23 2 11 10 27 16 35 12 15 46 112 46 133 0 6 9 29 19 51 39 83
53 124 92 276 22 85 57 205 79 265 70 196 98 322 141 635 26 186 37 625 32
1235 -4 482 -8 526 -68 850 -15 77 -35 230 -45 340 -32 342 -50 493 -86 700
-41 234 -63 462 -64 667 0 162 -20 337 -49 438 -24 83 -42 200 -35 227 3 12
-1 43 -9 70 -37 119 -42 173 -41 508 1 493 2 503 25 555 24 54 52 203 44 231
-5 14 2 28 22 47 15 15 55 56 87 91 68 72 163 149 224 180 22 11 60 34 84 50
58 39 207 91 288 101 36 4 103 17 150 30 149 39 315 13 483 -78 37 -20 67 -42
67 -50 0 -17 -20 -55 -34 -65 -7 -4 -3 -9 12 -13 29 -8 28 -23 -3 -49 -33 -26
-54 -103 -62 -226 -4 -69 -2 -98 6 -103 22 -14 40 15 46 72 4 31 14 67 22 80
8 13 18 58 22 101 5 42 14 87 21 100 9 18 9 25 0 31 -17 10 -9 41 15 54 72 41
110 74 117 104 11 41 89 104 155 124 99 31 204 38 693 42 503 5 602 11 790 50
41 9 85 16 97 16 12 0 59 16 105 36 45 19 101 39 123 44 22 5 54 12 70 16 17
4 39 15 50 25 11 9 52 27 90 39 75 23 137 50 170 74 13 10 25 12 35 6 12 -8
10 -21 -14 -93 -32 -91 -30 -113 9 -123 40 -10 52 1 69 59 9 30 22 60 30 66
11 10 66 10 233 2 120 -5 225 -10 233 -10 118 4 262 -17 490 -72 91 -22 176
-44 190 -49 14 -5 93 -27 175 -50 83 -23 188 -55 235 -72 47 -16 101 -33 120
-38 87 -19 267 -105 438 -209 52 -31 106 -63 120 -71 132 -74 189 -123 246
-213 38 -59 94 -196 119 -292 17 -64 45 -348 49 -505 2 -55 -30 -162 -56 -190
-13 -14 -36 -51 -51 -83 -15 -32 -40 -67 -56 -79 -16 -12 -32 -31 -35 -42 -3
-12 -37 -84 -74 -161 -37 -77 -71 -156 -75 -175 -4 -19 -11 -41 -16 -50 -12
-22 -30 -141 -23 -152 3 -5 -4 -41 -16 -79 -16 -49 -27 -69 -39 -69 -26 0
-108 56 -175 119 -114 107 -170 149 -221 163 -27 8 -55 13 -60 11 -7 -2 -10
-73 -9 -196 1 -117 -3 -223 -11 -272 -7 -44 -13 -123 -13 -176 -1 -52 -6 -115
-11 -140 -6 -24 -11 -72 -11 -106 0 -34 -5 -74 -10 -88 -6 -14 -11 -55 -13
-90 -2 -35 -8 -70 -14 -77 -12 -16 -21 -70 -33 -203 -11 -130 -43 -309 -80
-446 -25 -95 -38 -125 -93 -207 -35 -53 -81 -131 -103 -172 -30 -59 -63 -100
-154 -190 -200 -200 -377 -330 -596 -437 -132 -64 -143 -68 -222 -71 -45 -2
-93 -1 -107 2 -45 11 -94 64 -110 120 -15 51 -86 147 -167 228 -31 30 -38 44
-38 75 1 57 31 113 88 165 43 38 52 52 52 80 0 36 -31 95 -55 104 -39 15 -175
-103 -175 -151 0 -14 -11 -48 -25 -75 -14 -27 -25 -59 -25 -70 0 -12 -5 -31
-11 -42 -16 -30 -29 -5 -29 57 0 37 -10 71 -42 137 -45 97 -50 99 -123 74 -39
-14 -40 -16 -37 -58 2 -24 16 -70 32 -104 24 -48 30 -74 30 -127 l0 -66 -51
-43 c-28 -23 -75 -77 -103 -118 -53 -75 -116 -193 -116 -215 0 -7 -6 -25 -14
-41 -8 -16 -18 -51 -21 -79 -6 -48 -5 -51 24 -67 17 -9 31 -22 31 -27 0 -6
-16 -25 -35 -44 -29 -28 -36 -43 -41 -91 l-7 -57 44 7 c24 4 56 13 71 20 15 8
62 19 105 25 43 5 116 17 163 25 302 50 566 63 729 34 45 -9 103 -29 150 -53
71 -36 228 -83 313 -94 34 -5 39 -2 48 22 6 15 20 41 31 57 12 16 20 30 18 32
-11 6 -102 28 -157 36 -35 6 -71 14 -80 19 -9 4 -46 13 -82 20 -36 7 -84 17
-107 22 -23 5 -61 9 -85 9 -24 0 -97 9 -163 20 -146 24 -332 26 -570 5 -93 -8
-186 -15 -207 -15 -36 0 -36 1 -43 48 -5 42 -1 62 31 141 20 51 52 114 71 140
18 25 38 58 44 72 6 15 33 46 60 69 63 53 133 64 201 32 52 -24 73 -46 128
-137 57 -92 189 -222 265 -259 85 -41 187 -74 255 -82 33 -4 60 -11 60 -17 0
-20 267 30 390 72 209 73 308 110 336 127 17 11 96 73 176 139 155 128 157
130 275 335 96 169 166 322 198 435 15 55 35 116 45 135 10 21 20 72 24 125
26 341 111 660 193 724 39 32 97 28 121 -6 28 -40 62 -146 62 -193 0 -35 -3
-40 -23 -40 -18 0 -28 10 -42 40 -18 40 -41 52 -51 27 -2 -7 5 -57 16 -111 41
-202 24 -304 -91 -531 -45 -88 -96 -181 -115 -206 -32 -44 -58 -97 -91 -184
-23 -64 -29 -325 -8 -395 9 -30 23 -100 30 -155 7 -55 22 -144 34 -199 11 -54
21 -104 21 -111 0 -6 -25 -17 -57 -24 -271 -57 -423 -127 -559 -258 -92 -89
-111 -119 -156 -243 -41 -118 -33 -300 19 -420 47 -107 184 -218 333 -269 105
-36 202 -81 239 -110 l24 -19 -36 -65 c-45 -82 -117 -263 -158 -398 -23 -75
-34 -135 -39 -216 -6 -93 -12 -121 -35 -166 -22 -44 -25 -58 -16 -75 7 -13 12
-84 12 -179 1 -87 3 -165 5 -173 3 -12 22 -14 109 -12 108 3 120 9 90 42 -9
10 -19 51 -25 99 -5 45 -12 85 -14 90 -10 15 31 375 62 552 18 97 77 237 212
498 l53 104 -35 32 c-27 25 -48 34 -89 40 -30 4 -86 22 -126 41 -39 19 -78 34
-85 34 -8 0 -18 4 -23 9 -6 5 -61 35 -124 67 -62 32 -120 68 -128 79 -103 149
-106 156 -100 245 8 119 52 208 160 326 44 48 71 66 201 129 83 40 175 83 204
94 28 12 75 30 103 41 31 13 62 19 78 15 22 -5 28 -1 40 26 12 26 11 38 -4 87
-9 31 -20 71 -25 87 -5 17 -25 73 -44 125 -21 56 -37 121 -40 157 -3 35 -7 67
-11 73 -3 5 -6 51 -6 102 -1 85 3 104 44 220 36 103 60 150 122 243 42 63 83
135 91 160 9 25 20 47 25 51 5 3 9 16 9 29 0 13 16 74 36 137 33 103 35 120
30 192 -8 95 4 116 66 116 l40 0 -5 68 c-6 105 -34 231 -64 290 -28 55 -109
137 -151 153 -13 5 -52 9 -88 9 -58 0 -70 -4 -108 -32 -24 -18 -53 -46 -64
-63 -43 -62 -159 -525 -197 -785 -22 -147 -80 -322 -182 -540 -14 -30 -41 -91
-60 -135 -20 -44 -51 -101 -69 -126 -37 -50 -152 -157 -224 -207 -25 -17 -68
-50 -97 -74 -59 -49 -134 -83 -278 -126 -127 -38 -175 -45 -305 -43 -123 2
-180 9 -180 22 0 16 63 38 127 45 59 7 133 41 203 94 19 14 66 46 105 70 59
37 246 192 375 310 39 36 157 204 225 320 21 36 48 101 61 145 12 44 34 111
48 149 43 115 100 383 131 611 17 134 34 240 45 300 34 171 40 231 40 425 -1
159 -4 211 -15 230 -19 33 -19 84 0 100 21 18 54 2 69 -33 7 -18 65 -82 127
-143 107 -103 119 -112 187 -133 98 -32 161 -25 211 22 20 19 51 44 69 56 19
14 32 31 32 44 0 12 14 40 30 61 23 31 30 50 30 86 0 48 29 147 55 187 8 12
33 28 55 34 52 16 111 -6 173 -64 37 -34 49 -55 66 -113 12 -39 21 -82 21 -94
0 -13 -31 -91 -69 -174 -102 -224 -171 -454 -171 -567 0 -46 12 -113 36 -206
5 -16 -5 -33 -37 -68 -36 -39 -48 -46 -72 -42 -48 7 -60 -49 -20 -95 16 -18
14 -45 -7 -129 -13 -48 -9 -60 105 -314 88 -196 159 -422 170 -540 8 -85 -25
-235 -74 -338 -17 -36 -31 -77 -31 -91 0 -14 -13 -55 -30 -89 -16 -35 -30 -69
-30 -76 0 -6 -4 -19 -9 -29 -5 -9 -15 -30 -22 -47 -18 -40 -210 -230 -284
-280 -91 -62 -179 -154 -214 -223 -29 -58 -31 -67 -31 -178 0 -116 14 -193 47
-258 9 -16 68 -90 132 -164 227 -262 284 -346 311 -460 15 -66 10 -111 -30
-233 -27 -83 -54 -186 -107 -409 -8 -36 -21 -81 -28 -100 -43 -118 -71 -258
-56 -273 6 -6 11 -21 11 -34 0 -24 18 -37 65 -46 46 -9 58 4 62 70 3 47 97
392 133 493 5 14 14 50 19 80 5 30 21 96 35 145 62 215 68 248 62 302 -9 77
-42 138 -199 373 -9 14 -33 50 -53 80 -20 30 -55 75 -78 100 -53 56 -106 125
-106 137 0 5 -13 22 -30 38 -65 63 -78 153 -35 251 30 67 62 106 165 199 43
39 104 101 136 139 31 38 66 78 76 88 10 10 18 24 18 31 0 8 11 24 24 37 14
12 41 57 61 99 20 42 46 86 57 98 21 23 82 161 100 228 6 22 15 44 19 49 5 6
9 23 9 38 0 16 6 41 14 56 7 15 17 54 21 87 4 33 13 72 21 87 19 37 18 92 -6
209 -22 106 -44 174 -67 200 -7 8 -13 20 -13 26 0 6 -18 50 -41 99 -23 49 -52
114 -66 144 -14 30 -33 64 -43 75 -9 11 -26 36 -36 55 -10 19 -25 43 -33 52
-9 12 -12 34 -9 69 5 46 11 56 62 108 47 47 60 68 73 117 19 72 20 147 3 238
-23 124 -9 208 60 351 161 335 180 449 104 621 -26 59 -29 96 -14 153 41 152
122 584 151 801 15 117 16 898 1 926 -12 22 -35 131 -47 217 -11 80 -128 417
-181 520 -26 49 -193 261 -231 292 -20 17 -52 45 -70 63 -50 51 -220 143 -353
190 -47 17 -128 47 -180 67 -52 20 -111 40 -130 45 -19 5 -71 18 -115 30 -44
11 -159 27 -255 35 -96 8 -193 17 -215 20 -22 3 -65 7 -95 10 -30 3 -118 12
-196 20 -94 9 -274 15 -540 15 -656 3 -653 3 -709 24 -27 11 -72 34 -100 52
-27 17 -93 57 -145 87 -52 31 -106 65 -120 75 -58 45 -321 171 -387 185 -89
20 -338 30 -378 15z m385 -133 c176 -40 296 -106 450 -245 121 -110 156 -130
237 -140 37 -5 109 -21 158 -36 87 -26 98 -27 362 -28 251 -1 273 -2 273 -18
0 -10 -11 -25 -24 -33 -49 -33 -143 -191 -191 -324 -49 -136 -59 -171 -76
-269 -7 -40 -18 -77 -25 -82 -7 -6 -60 -10 -130 -8 l-119 3 -3 31 c-2 22 5 40
22 61 21 24 24 37 19 66 -4 25 -2 37 6 37 7 0 11 8 10 18 -1 9 2 34 8 54 10
32 10 57 3 78 -1 3 -1 15 -1 27 6 66 -150 242 -256 289 -100 45 -237 67 -287
48 -28 -11 -18 -34 14 -34 28 0 80 -18 90 -31 3 -4 35 -21 72 -38 88 -41 129
-78 175 -159 l38 -67 -1 -135 c0 -109 -4 -147 -21 -195 l-20 -60 -89 0 c-84 0
-93 -2 -159 -39 -38 -21 -101 -59 -138 -84 -59 -39 -71 -44 -88 -34 -10 7 -34
12 -53 12 -43 0 -50 23 -40 140 10 134 68 261 157 348 43 43 45 43 138 52 52
5 101 10 111 10 12 0 16 9 16 35 0 56 -44 90 -99 75 -19 -4 -68 -14 -109 -21
l-75 -12 -82 -80 c-46 -45 -87 -94 -92 -111 -27 -82 -72 -311 -78 -396 l-8
-95 -35 0 -35 0 -9 70 c-12 97 -16 464 -6 555 9 85 30 179 57 260 22 65 102
172 149 199 67 40 49 111 -28 111 -93 0 -145 -56 -231 -251 -37 -83 -47 -117
-47 -159 0 -29 -7 -92 -16 -139 -17 -87 -16 -299 2 -573 l7 -98 -25 0 c-34 0
-48 35 -48 116 0 38 -8 89 -20 125 -15 44 -19 73 -14 108 4 30 0 74 -9 117 -9
38 -23 116 -32 174 -18 116 -42 209 -85 343 -28 85 -33 92 -130 194 -100 106
-117 137 -86 162 19 16 131 60 191 76 70 18 275 18 355 0z m-642 -137 c5 -7
15 -39 22 -70 9 -48 23 -72 86 -150 79 -99 115 -180 118 -271 1 -27 15 -70 42
-122 22 -44 48 -109 58 -145 10 -36 29 -103 41 -150 31 -113 54 -268 46 -316
-5 -29 -12 -40 -26 -42 -27 -4 -53 71 -65 182 -10 99 -27 199 -42 246 -17 55
-89 201 -124 250 -17 25 -35 55 -38 66 -7 22 -67 80 -145 141 -46 35 -255 144
-313 163 -21 6 -38 15 -38 20 0 5 20 18 44 28 24 11 85 48 137 83 149 102 175
113 197 87z m2582 -297 c17 -5 26 -15 28 -34 3 -22 -1 -27 -25 -33 -128 -29
-138 -33 -176 -76 -38 -42 -51 -61 -150 -224 -58 -96 -103 -209 -116 -294 -6
-34 -17 -73 -26 -86 -14 -21 -23 -24 -83 -24 -80 0 -108 15 -99 51 67 279 87
339 154 475 84 171 108 210 136 227 34 19 303 33 357 18z m-2825 -55 c73 -35
105 -58 170 -123 44 -44 92 -95 106 -114 25 -32 78 -144 94 -199 5 -14 32 -76
61 -138 30 -62 54 -117 54 -122 0 -6 8 -22 17 -36 11 -17 18 -54 21 -110 5
-95 2 -99 -78 -98 -191 1 -330 7 -331 12 -13 149 -67 289 -150 392 -24 30 -56
73 -70 95 -39 60 -235 254 -301 297 -55 37 -168 83 -218 90 -39 5 -33 39 10
60 48 23 300 48 425 42 93 -4 107 -8 190 -48z m3230 -2 c88 -9 190 -19 227
-23 72 -7 105 -24 78 -41 -8 -5 -22 -10 -31 -10 -37 0 -145 -87 -280 -226 -79
-81 -187 -191 -240 -244 -63 -61 -106 -114 -124 -150 -49 -98 -61 -110 -108
-110 -23 0 -58 5 -77 10 -177 48 -205 58 -209 75 -3 19 15 62 115 270 53 111
73 142 141 215 43 47 98 113 122 147 51 74 102 103 176 103 28 0 122 -8 210
-16z m590 -88 c11 -7 49 -23 85 -35 64 -21 176 -68 297 -126 73 -35 83 -60 29
-70 -19 -4 -43 -4 -54 -1 -23 8 -90 -13 -187 -59 -102 -48 -286 -218 -368
-339 -33 -50 -83 -120 -109 -155 -38 -49 -48 -70 -43 -88 4 -16 1 -25 -9 -29
-19 -7 -119 13 -178 37 -27 10 -69 28 -95 38 -27 11 -79 27 -118 36 -81 18
-115 38 -115 65 0 11 54 79 123 154 175 193 383 424 446 496 30 34 68 69 85
76 41 18 185 18 211 0z m-4410 -40 c28 -13 63 -37 78 -54 50 -53 73 -76 130
-125 32 -27 72 -75 93 -110 19 -34 51 -75 70 -92 66 -58 238 -374 220 -404 -6
-10 -379 -13 -393 -3 -7 4 -34 48 -59 97 -160 308 -313 411 -704 476 -96 16
-189 34 -207 40 -54 17 -40 34 40 47 40 7 88 22 106 33 19 11 66 29 105 39 39
11 94 28 123 39 64 25 151 38 263 40 70 1 94 -3 135 -23z m5052 -336 c48 -50
96 -105 106 -123 11 -17 35 -56 54 -85 78 -121 109 -196 98 -232 -8 -24 -37
-26 -56 -4 -32 39 -64 45 -181 35 -64 -5 -139 -18 -173 -30 -33 -11 -67 -21
-75 -21 -9 0 -75 -29 -148 -65 -72 -36 -136 -65 -141 -65 -18 0 -82 -42 -92
-61 -15 -29 -49 -23 -148 27 -63 31 -91 51 -91 63 0 9 39 63 88 120 48 56 114
138 147 181 102 133 145 184 192 222 47 39 156 95 204 105 16 3 32 10 35 14 3
5 25 9 49 9 43 0 48 -3 132 -90z m-5792 60 c114 -11 290 -54 385 -95 30 -13
87 -35 125 -49 39 -14 87 -40 108 -57 56 -46 147 -238 147 -310 0 -22 -7 -32
-31 -45 -63 -32 -129 -87 -165 -135 -41 -57 -67 -61 -93 -17 -21 36 -137 93
-230 113 -104 22 -248 20 -319 -4 -154 -53 -228 -82 -263 -105 -21 -14 -46
-26 -55 -26 -9 0 -28 -6 -42 -13 -15 -8 -49 -25 -77 -39 -116 -58 -214 -114
-272 -155 -34 -24 -75 -48 -91 -52 -34 -10 -62 3 -62 29 0 21 52 172 81 237
10 23 19 47 19 54 0 24 54 135 77 157 13 13 23 29 23 36 0 22 52 115 102 183
124 169 195 230 304 263 38 12 80 25 94 30 36 11 109 12 235 0z m6033 -589
c80 -11 113 -48 126 -143 6 -40 10 -134 8 -208 -2 -114 -5 -137 -20 -148 -23
-18 -68 -11 -222 33 -130 38 -129 38 -286 19 l-50 -6 -72 66 c-40 36 -79 66
-88 66 -25 0 -74 39 -74 60 0 10 -7 20 -14 23 -20 8 -32 73 -17 91 6 7 38 19
71 25 33 7 62 16 65 21 3 5 53 27 112 50 84 33 127 44 198 50 121 10 199 10
263 1z m-224 -557 c33 -11 64 -15 98 -11 46 6 54 4 85 -23 19 -17 50 -33 74
-36 57 -9 92 -40 84 -72 -4 -15 -8 -147 -10 -295 -2 -148 -6 -271 -9 -274 -3
-3 -23 13 -45 36 -22 22 -46 41 -55 41 -8 0 -27 16 -42 35 -15 20 -54 51 -88
70 l-61 34 -19 122 c-10 67 -28 143 -39 168 -32 71 -76 205 -71 213 8 13 47 9
98 -8z m131 -700 c9 -4 52 -49 95 -101 l79 -94 -5 -97 c-3 -53 -12 -137 -21
-185 -26 -145 -63 -137 -152 34 -24 46 -59 99 -77 117 -45 44 -50 70 -31 171
9 47 18 97 19 111 4 35 54 59 93 44z m-148 -416 c92 -98 193 -254 200 -308 7
-48 -3 -50 -90 -20 -91 32 -117 28 -170 -28 -24 -27 -53 -64 -62 -83 -10 -19
-26 -45 -36 -58 -11 -13 -19 -36 -19 -52 0 -15 -4 -30 -9 -34 -5 -3 -13 -20
-16 -38 -13 -58 -53 -126 -79 -133 -24 -6 -66 10 -66 24 0 49 52 231 107 376
39 105 154 335 185 374 15 18 21 16 55 -20z"/>
<path d="M5320 8453 c-123 -73 -171 -133 -220 -273 -17 -52 -34 -99 -37 -103
-3 -4 -60 49 -127 118 -67 69 -128 125 -134 125 -7 0 -55 18 -107 40 -85 37
-100 40 -147 34 -88 -11 -87 -16 9 -81 75 -51 147 -91 343 -194 51 -26 140
-113 140 -135 0 -11 7 -30 16 -42 10 -14 16 -53 19 -116 3 -51 12 -115 21
-142 9 -27 18 -62 19 -79 2 -16 13 -64 25 -105 47 -164 60 -229 67 -318 4 -62
11 -99 21 -109 21 -20 29 -4 38 75 5 45 2 81 -9 121 -23 85 -55 229 -66 296
-6 33 -15 86 -20 117 -6 34 -6 90 -1 139 4 45 5 108 3 140 -4 38 0 72 11 105
9 26 16 64 16 84 0 19 8 47 17 60 31 46 103 122 147 155 43 34 74 85 61 104
-11 19 -59 12 -105 -16z"/>
<path d="M3715 8115 c-38 -19 -106 -46 -150 -61 -142 -47 -225 -102 -384 -258
-78 -78 -155 -159 -169 -181 -14 -22 -38 -56 -53 -75 -16 -19 -44 -54 -63 -77
-19 -24 -53 -81 -76 -129 -23 -47 -58 -111 -78 -143 -40 -62 -95 -187 -107
-241 l-7 -35 74 70 c41 39 124 111 183 160 60 50 136 114 169 144 34 29 79 65
101 80 22 14 77 54 123 88 45 35 87 63 91 63 5 0 79 46 163 103 200 134 225
142 428 142 112 0 179 -5 240 -18 93 -20 198 -55 206 -68 3 -5 12 -9 20 -9 8
0 65 -24 127 -54 128 -61 223 -89 276 -81 20 3 64 11 99 17 l63 10 -6 57 c-11
96 -25 164 -51 232 -29 79 -80 134 -116 126 -76 -18 -147 -41 -183 -60 -91
-49 -261 -20 -502 84 -61 27 -116 49 -122 49 -13 0 -82 36 -140 72 -25 15 -54
28 -65 27 -12 0 -52 -16 -91 -34z"/>
<path d="M5795 8039 c-38 -5 -83 -14 -99 -19 -44 -15 -112 -12 -126 5 -10 12
-34 14 -129 11 -64 -2 -122 -5 -129 -5 -7 -1 -25 -27 -39 -58 -24 -56 -25 -63
-19 -182 8 -149 19 -176 85 -213 40 -23 61 -28 116 -28 36 0 76 5 88 11 12 7
56 47 98 90 66 67 84 80 135 95 81 23 359 35 386 15 11 -7 47 -20 81 -28 61
-14 214 -85 299 -139 100 -64 490 -252 547 -264 62 -13 300 -10 334 5 35 15
10 30 -59 36 -109 10 -162 27 -222 69 -30 22 -59 40 -63 40 -17 0 -143 93
-236 174 -55 48 -128 105 -162 127 -58 38 -75 63 -49 71 6 2 9 12 5 21 -5 13
-18 17 -52 17 -38 0 -55 7 -99 40 -29 22 -56 40 -60 40 -5 0 -36 13 -70 29
-55 26 -74 29 -201 35 -77 3 -174 8 -215 10 -41 3 -106 0 -145 -5z"/>
<path d="M1790 7714 c-302 -46 -370 -71 -505 -188 l-40 -34 34 -36 c19 -20 39
-36 44 -36 10 0 119 49 177 80 19 10 76 26 125 35 50 9 106 20 126 26 50 12
234 10 289 -4 55 -15 59 -26 90 -218 11 -74 25 -154 29 -179 12 -63 81 -341
91 -365 18 -44 19 -57 10 -76 -6 -11 -21 -19 -36 -19 -22 0 -30 11 -60 76 -43
94 -72 137 -163 238 -39 44 -79 98 -90 121 -11 23 -31 49 -45 59 -14 9 -26 24
-26 34 -1 9 -15 24 -33 33 -18 9 -51 27 -75 39 -41 21 -46 22 -140 11 -134
-17 -169 -27 -231 -68 -50 -33 -57 -42 -117 -168 -35 -74 -64 -145 -64 -157 0
-13 -7 -61 -16 -108 -8 -47 -19 -110 -24 -140 -4 -31 -18 -89 -30 -129 l-22
-74 21 -111 c12 -61 21 -138 21 -172 0 -33 4 -85 10 -115 5 -30 17 -99 26
-154 9 -55 24 -120 34 -145 9 -25 23 -74 29 -110 8 -41 25 -83 47 -115 18 -29
41 -76 50 -106 9 -30 23 -71 30 -92 8 -20 14 -46 14 -56 0 -10 18 -46 41 -81
22 -35 45 -74 50 -86 17 -46 112 -166 150 -190 21 -13 85 -43 141 -66 92 -37
112 -41 183 -41 122 1 166 23 273 143 48 53 95 111 104 128 15 29 22 32 61 32
25 0 49 -6 54 -12 6 -7 18 -62 28 -123 11 -68 30 -140 50 -187 18 -43 38 -101
45 -130 12 -53 119 -276 149 -311 14 -17 67 -115 126 -234 25 -51 40 -66 170
-173 36 -30 93 -82 125 -115 53 -53 78 -80 174 -185 13 -14 56 -54 97 -90 88
-76 145 -146 160 -192 6 -18 15 -41 20 -51 46 -84 69 -410 36 -507 -37 -112
-91 -293 -113 -383 -13 -53 -41 -128 -61 -165 -52 -96 -73 -140 -73 -150 0 -5
-11 -29 -25 -53 -13 -24 -34 -62 -46 -84 -26 -47 -121 -187 -158 -231 -59 -71
-131 -183 -131 -203 0 -13 -12 -28 -31 -40 -33 -20 -106 -108 -186 -225 -114
-166 -214 -290 -237 -294 -20 -4 -56 25 -56 45 0 8 9 26 19 39 16 20 19 44 22
137 4 207 -14 484 -35 525 -10 19 -11 33 -5 45 7 11 4 37 -7 79 -10 35 -18 83
-19 108 -2 42 -14 127 -45 325 -7 44 -21 112 -31 151 -11 38 -19 81 -19 93 0
13 -7 44 -15 70 -7 25 -20 66 -27 91 -7 25 -18 56 -25 70 -7 14 -13 32 -13 41
0 35 -34 116 -61 144 -16 17 -34 46 -40 65 -7 19 -27 52 -46 73 -18 20 -33 43
-33 50 0 7 -13 26 -29 41 -16 16 -32 40 -36 54 -3 14 -26 53 -51 85 -24 32
-44 65 -44 72 0 8 -11 27 -25 43 -14 17 -31 45 -37 64 -6 18 -22 47 -35 64
-12 17 -23 36 -23 41 0 6 -16 37 -35 69 -23 37 -35 70 -35 94 0 21 -10 50 -25
72 -14 20 -25 44 -25 52 0 9 -16 45 -35 82 -19 36 -35 75 -35 86 0 11 -9 31
-19 44 -11 14 -23 44 -26 67 -8 43 -29 81 -73 129 -20 22 -24 34 -19 63 4 27
-2 56 -25 113 -68 170 -90 239 -89 270 1 19 -7 46 -17 60 -28 41 -42 80 -42
113 0 16 -7 44 -17 62 -9 18 -26 82 -38 144 -13 61 -34 137 -49 168 -14 32
-26 71 -26 87 0 16 -9 46 -20 68 -11 22 -20 51 -20 66 0 14 -11 39 -24 55 -17
20 -26 47 -31 90 -4 34 -13 76 -20 93 -7 17 -16 60 -19 94 -4 35 -12 76 -18
90 -6 15 -14 70 -19 122 -6 86 -21 197 -35 258 -7 34 -50 27 -48 -8 9 -144 30
-345 51 -480 14 -91 27 -183 30 -205 14 -141 28 -224 55 -330 36 -141 41 -163
67 -275 25 -110 66 -257 96 -345 48 -141 113 -323 158 -440 25 -67 50 -140 56
-163 7 -23 39 -91 72 -150 32 -59 86 -172 119 -252 34 -80 65 -152 70 -160 10
-15 19 -35 47 -100 8 -19 37 -70 64 -112 27 -42 76 -138 109 -213 32 -75 73
-156 90 -181 16 -25 30 -47 30 -49 0 -2 14 -27 31 -56 45 -76 57 -117 109
-371 11 -54 27 -117 35 -140 8 -24 15 -59 15 -79 0 -20 4 -49 10 -65 21 -62
43 -215 51 -349 5 -77 13 -167 18 -200 26 -155 33 -270 21 -369 -20 -174 -42
-239 -119 -351 -38 -55 -79 -120 -91 -145 -30 -59 -63 -104 -124 -167 -46 -48
-49 -54 -38 -78 11 -25 13 -25 126 -25 89 0 117 3 123 14 15 26 267 257 353
323 119 92 181 164 320 372 86 129 145 206 202 263 31 31 69 76 84 100 15 24
44 63 65 87 47 53 84 118 109 189 11 30 31 65 45 77 14 13 25 30 25 36 0 7 21
46 47 88 64 102 113 201 113 228 0 12 8 27 19 32 10 6 24 25 31 43 26 66 42
104 60 143 34 75 79 225 110 367 15 67 7 285 -15 389 -15 76 -66 183 -148 316
-57 91 -109 144 -207 210 -25 17 -131 118 -235 224 -171 174 -201 210 -296
354 -159 241 -184 288 -225 426 -20 68 -54 172 -75 230 -38 108 -74 272 -59
277 4 2 6 12 3 22 -7 27 20 26 86 -1 58 -25 81 -16 81 30 0 45 -166 191 -217
191 -39 0 -88 -23 -126 -59 -41 -39 -137 -154 -137 -165 0 -4 -24 -48 -54 -99
-60 -101 -126 -166 -190 -187 -60 -20 -159 -8 -238 29 -58 27 -75 41 -122 103
-74 99 -125 206 -181 378 -26 80 -63 188 -83 240 -45 117 -66 212 -92 405 -12
83 -25 180 -30 218 -14 99 -12 261 5 347 56 286 62 306 109 368 23 30 48 67
58 84 27 50 46 64 99 76 57 13 138 16 155 4 17 -11 174 -153 209 -188 79 -82
105 -112 105 -122 0 -6 18 -30 41 -54 22 -24 60 -78 85 -120 56 -96 180 -221
249 -253 99 -45 145 -58 187 -51 38 6 58 15 159 74 46 27 139 120 139 140 0 6
-16 20 -35 32 -47 29 -71 22 -147 -46 -71 -64 -98 -79 -151 -89 -36 -7 -41 -5
-80 37 -43 46 -73 125 -97 258 -11 58 -34 141 -56 203 -8 20 -14 51 -14 68 0
16 -7 41 -16 54 -11 17 -17 56 -20 137 -5 159 -13 190 -63 238 -38 37 -41 44
-41 94 0 31 -5 58 -12 63 -22 17 -235 22 -328 7z"/>
<path d="M5767 7645 c-20 -14 -37 -30 -37 -35 0 -6 24 -26 54 -45 64 -41 136
-120 136 -149 0 -26 -18 -46 -40 -46 -22 0 -108 67 -115 91 -8 25 -63 57 -110
64 -90 14 -103 -59 -17 -96 59 -25 102 -66 102 -96 0 -17 -13 -30 -53 -53 -29
-16 -66 -43 -82 -60 -16 -16 -34 -30 -41 -30 -20 0 -42 38 -69 121 -40 120
-73 129 -95 25 -10 -49 -9 -58 21 -132 17 -43 52 -114 77 -158 l45 -78 -16
-72 c-9 -39 -20 -96 -23 -127 l-6 -56 56 -48 c31 -27 55 -53 53 -58 -1 -5 -19
-15 -39 -22 -20 -6 -56 -29 -79 -49 -23 -20 -46 -36 -50 -36 -5 0 -19 -19 -33
-42 -28 -49 -39 -139 -17 -146 7 -2 51 34 96 81 63 65 98 93 148 116 37 17 73
31 81 31 9 0 58 -13 109 -30 52 -16 106 -30 121 -30 32 0 92 -38 79 -51 -4 -4
-53 -15 -108 -24 -185 -29 -298 -73 -435 -168 -30 -20 -77 -53 -105 -71 -62
-42 -95 -86 -95 -126 0 -33 12 -37 50 -16 174 97 468 219 569 237 30 5 57 12
61 14 20 12 404 25 495 16 156 -15 289 -68 396 -159 21 -19 43 -32 47 -30 18
7 82 86 82 101 0 8 -15 24 -32 35 -18 11 -62 39 -98 61 -79 50 -219 97 -320
106 -41 4 -86 13 -99 20 l-24 12 27 18 c17 11 60 21 114 26 120 12 197 38 299
102 49 30 128 74 176 97 l89 43 46 -46 c61 -58 86 -70 128 -62 44 8 44 29 2
85 -62 80 -68 92 -57 112 12 22 69 48 129 57 30 4 45 11 45 21 0 22 -175 27
-217 5 -43 -21 -44 -20 -102 28 -76 64 -132 100 -221 142 -44 20 -138 65 -210
100 -201 98 -359 124 -548 90 -84 -14 -205 -70 -347 -158 -41 -26 -82 -47 -92
-47 -23 0 -50 42 -42 64 7 19 116 96 136 96 8 0 22 6 33 13 44 31 226 96 320
116 54 12 132 21 173 21 153 0 482 -101 673 -207 30 -16 68 -37 84 -46 126
-69 346 -140 367 -119 17 17 -61 76 -159 122 -24 10 -43 23 -43 28 0 15 24 32
47 32 24 0 32 23 11 36 -6 4 -61 9 -122 10 -80 2 -133 10 -191 27 l-80 23 3
36 c3 28 -2 39 -18 51 -20 14 -27 13 -78 -4 -74 -26 -151 -25 -196 2 -20 12
-36 27 -36 35 0 22 48 36 95 28 44 -6 65 6 42 23 -6 6 -37 20 -68 33 -56 22
-57 22 -131 6 -42 -9 -90 -28 -108 -41 -37 -27 -65 -30 -120 -15 -60 17 -66
25 -41 51 24 26 81 123 81 139 0 18 -55 10 -107 -16 -47 -23 -53 -30 -69 -81
-18 -57 -35 -80 -79 -103 -34 -18 -49 -3 -65 67 -15 71 -23 86 -74 145 -49 57
-81 62 -139 23z m674 -509 c210 -76 469 -209 535 -277 37 -38 37 -39 18 -60
-10 -11 -50 -39 -89 -61 -38 -23 -77 -47 -85 -54 -23 -19 -218 -114 -279 -135
-123 -43 -191 -4 -92 52 20 11 48 39 63 62 29 48 44 127 29 154 -6 10 -20 54
-31 97 -11 44 -26 86 -34 95 -8 9 -49 34 -90 56 -109 57 -123 69 -107 89 20
24 56 20 162 -18z m-184 -81 c52 -22 160 -115 172 -149 17 -45 13 -88 -15
-178 -35 -110 -48 -134 -81 -146 -15 -6 -52 -20 -81 -31 -46 -17 -62 -18 -115
-10 -34 6 -77 20 -97 32 -19 12 -48 29 -65 38 -49 27 -69 63 -71 127 0 31 -4
64 -7 72 -24 67 1 123 91 204 l63 56 85 0 c53 0 98 -6 121 -15z m-402 -37
c-13 -43 -34 -203 -35 -263 0 -79 -17 -111 -55 -107 -36 4 -138 39 -187 64
-29 14 -38 24 -38 44 0 27 40 74 64 74 8 0 31 19 50 43 49 57 176 167 194 167
10 0 12 -6 7 -22z"/>
<path d="M6069 6947 c-53 -45 -63 -97 -28 -141 20 -25 20 -31 9 -65 -11 -33
-10 -42 9 -78 24 -48 49 -57 130 -47 81 10 98 19 121 64 33 65 35 118 6 165
-14 22 -30 51 -37 65 -6 14 -15 32 -19 40 -5 11 -28 16 -86 17 -69 2 -82 0
-105 -20z"/>
<path d="M3922 7577 c-18 -41 -21 -60 -15 -123 5 -62 3 -77 -12 -94 -22 -24
-71 -35 -90 -20 -21 17 -71 110 -86 158 -7 23 -16 42 -20 42 -5 0 -22 -24 -38
-52 -21 -36 -28 -60 -25 -78 20 -89 25 -98 54 -110 40 -17 42 -56 3 -71 -76
-29 -150 24 -185 133 -37 114 -65 76 -47 -62 11 -84 33 -123 72 -128 55 -7 41
-61 -21 -81 -63 -21 -134 0 -189 56 -52 54 -67 49 -60 -20 4 -44 10 -56 52
-95 l47 -46 -50 -48 c-32 -30 -59 -48 -75 -48 -13 0 -49 18 -81 40 -31 22 -60
40 -64 40 -9 -1 -57 -65 -57 -76 0 -5 24 -31 54 -59 l53 -50 84 -4 c84 -3 84
-3 112 29 15 18 56 64 92 103 36 40 72 81 80 92 18 23 65 60 175 137 112 77
200 122 270 137 33 7 89 19 125 27 109 25 228 29 306 11 38 -9 101 -19 139
-23 118 -10 242 -39 330 -74 68 -27 135 -66 140 -80 5 -14 67 -60 80 -60 3 0
3 16 -1 36 -4 24 -1 47 11 75 17 37 17 43 1 117 -13 58 -24 84 -46 106 -27 28
-31 29 -55 16 -30 -16 -31 -25 -5 -90 36 -91 19 -122 -55 -101 -25 6 -30 12
-28 37 8 99 2 137 -23 161 -34 32 -59 29 -74 -7 -12 -28 -11 -33 14 -59 14
-15 26 -37 26 -49 0 -39 -38 -36 -146 12 -100 44 -197 67 -337 81 -90 9 -118
32 -125 103 -2 29 -9 55 -15 59 -6 3 -22 -7 -36 -24 -14 -17 -36 -36 -49 -42
-13 -7 -27 -23 -32 -36 -10 -27 -50 -42 -75 -27 -9 5 -28 38 -42 73 -13 35
-28 73 -32 84 -7 17 -11 13 -29 -28z"/>
<path d="M4140 7213 c-51 -5 -148 -23 -203 -39 -47 -13 -156 -88 -257 -177
-180 -157 -240 -214 -240 -228 0 -5 25 -9 55 -9 50 0 60 4 115 46 33 25 83 66
112 92 86 76 136 112 206 149 37 19 81 43 97 53 17 10 58 28 92 39 80 27 285
30 354 5 24 -8 87 -24 139 -35 157 -33 274 -79 359 -143 19 -14 40 -26 45 -26
11 0 66 -52 202 -190 56 -57 74 -82 74 -103 0 -16 3 -27 8 -25 4 3 21 11 38
18 46 20 68 96 40 136 -14 18 -15 18 -36 -9 -28 -35 -39 -34 -81 9 -18 19 -72
68 -119 107 -46 40 -112 97 -145 128 -43 40 -71 58 -98 63 -22 4 -74 23 -117
42 -43 19 -82 34 -87 34 -4 0 -20 6 -34 14 -90 47 -144 56 -317 54 -92 0 -183
-3 -202 -5z"/>
<path d="M4310 7083 c-94 -9 -165 -26 -198 -47 -21 -12 -45 -25 -54 -29 -26
-9 -75 -82 -93 -138 l-16 -49 46 -102 c53 -116 88 -158 160 -193 57 -28 204
-51 258 -41 41 8 152 117 187 186 29 55 33 167 7 215 -8 17 -18 47 -22 67 -10
50 -67 115 -113 128 -36 10 -88 11 -162 3z m22 -260 c35 -32 15 -77 -50 -112
-31 -17 -51 -13 -77 14 -27 26 -33 76 -12 93 30 25 114 28 139 5z"/>
<path d="M1561 6947 c-57 -20 -68 -28 -102 -77 -34 -50 -39 -66 -54 -176 -14
-100 -15 -136 -6 -214 7 -51 14 -96 16 -100 2 -4 18 -58 35 -121 29 -105 39
-126 122 -254 50 -77 98 -152 108 -166 10 -14 32 -54 50 -90 l33 -64 -18 -182
c-9 -100 -15 -195 -12 -210 2 -15 18 -73 35 -127 24 -77 29 -103 20 -114 -30
-35 66 -43 155 -12 31 11 65 20 76 20 10 0 29 8 41 18 18 14 22 25 16 45 -6
25 -11 27 -55 27 -50 0 -91 22 -111 60 -23 42 -30 156 -19 308 10 135 9 161
-6 225 -28 115 -52 166 -118 249 -87 108 -154 216 -166 263 -5 22 -14 54 -20
70 -16 49 -29 201 -27 338 1 115 3 130 20 143 23 16 86 18 133 5 53 -15 169
-115 183 -157 18 -55 8 -190 -19 -242 -11 -22 -21 -46 -21 -51 0 -6 -11 -34
-24 -63 -13 -29 -27 -60 -30 -68 -3 -8 -11 -23 -18 -32 -10 -13 -8 -23 7 -52
11 -20 25 -36 31 -36 33 0 174 277 205 404 28 115 -58 282 -213 414 -48 40
-53 42 -116 42 -42 -1 -91 -9 -131 -23z"/>
<path d="M4892 6817 c-40 -20 -48 -32 -103 -145 -34 -68 -58 -126 -56 -129 3
-3 38 20 77 51 73 57 108 68 130 41 19 -23 73 -19 98 8 36 39 22 117 -29 164
-36 32 -68 35 -117 10z"/>
<path d="M3390 6670 c-8 -5 -41 -10 -73 -10 -63 0 -106 -9 -234 -47 -83 -24
-98 -38 -69 -62 11 -10 30 -8 83 8 37 10 93 23 123 26 30 4 88 18 129 32 70
23 80 23 165 13 128 -15 173 -31 396 -138 74 -35 175 -82 224 -104 49 -22 103
-48 120 -59 17 -10 52 -23 77 -29 l46 -12 94 59 c141 88 189 125 189 145 0 14
-3 16 -12 8 -47 -39 -62 -50 -70 -50 -5 0 -24 -11 -41 -24 -94 -71 -230 -49
-492 78 -200 98 -336 141 -490 156 -66 6 -127 13 -135 15 -8 3 -22 0 -30 -5z"/>
<path d="M3327 6539 c6 -6 51 -19 99 -29 111 -22 166 -41 275 -95 128 -63 179
-94 230 -139 25 -23 58 -49 75 -59 82 -49 140 -89 164 -112 39 -37 115 -59
143 -41 12 7 43 19 69 26 31 8 68 31 115 72 37 32 97 85 133 116 36 31 82 78
103 104 40 52 123 116 176 138 l34 14 -26 9 c-20 6 -31 5 -43 -7 -17 -17 -100
-76 -107 -76 -2 0 -21 -16 -41 -35 -56 -52 -215 -161 -266 -181 -25 -10 -60
-28 -79 -41 -19 -13 -43 -23 -53 -23 -19 0 -187 81 -258 125 -45 28 -222 123
-280 151 -61 29 -191 70 -266 83 -81 15 -212 15 -197 0z"/>
<path d="M5113 6473 c-45 -9 -68 -120 -78 -388 -3 -71 -10 -164 -15 -205 -5
-41 -12 -133 -15 -205 -4 -71 -13 -200 -21 -285 -8 -85 -14 -214 -14 -286 0
-118 2 -133 20 -149 11 -10 20 -23 20 -30 0 -6 6 -20 14 -30 13 -18 14 -18 44
4 52 37 62 94 62 353 0 127 7 283 15 363 21 196 20 242 -5 255 -26 14 -25 24
3 37 23 11 24 15 35 254 7 134 15 261 19 282 6 37 5 37 -28 36 -19 -1 -44 -4
-56 -6z"/>
<path d="M2752 6370 c-48 -11 -54 -21 -36 -55 9 -17 20 -66 25 -110 5 -43 16
-92 24 -108 17 -34 27 -92 50 -282 9 -77 28 -183 42 -235 14 -52 33 -141 43
-196 10 -56 32 -146 48 -200 17 -55 35 -126 42 -159 16 -85 119 -380 147 -421
42 -63 254 -470 272 -524 6 -19 35 -67 64 -106 28 -38 70 -98 92 -133 22 -34
74 -107 115 -162 210 -277 225 -304 241 -434 5 -38 13 -88 19 -110 14 -59 12
-226 -4 -271 -7 -22 -19 -70 -26 -109 -26 -148 -52 -253 -69 -286 -10 -19 -21
-48 -25 -65 -4 -17 -18 -46 -32 -65 -13 -18 -24 -40 -24 -48 0 -9 -9 -30 -20
-48 -17 -29 -90 -172 -134 -263 -24 -51 -37 -71 -72 -115 -18 -22 -49 -71 -70
-110 -21 -38 -59 -95 -84 -125 -26 -30 -62 -82 -80 -115 -34 -59 -91 -135
-173 -228 -23 -27 -46 -57 -52 -67 -5 -10 -66 -81 -135 -158 -69 -77 -145
-168 -169 -203 -26 -38 -99 -113 -178 -184 -133 -118 -201 -191 -190 -201 15
-15 75 -6 95 14 12 12 29 22 37 22 20 0 208 182 258 249 22 29 85 100 140 157
55 57 112 126 127 153 38 69 228 289 300 347 45 37 60 55 60 75 0 26 24 65
145 234 115 160 151 219 185 295 19 41 41 86 51 100 28 42 79 144 79 158 0 7
9 32 20 55 30 61 80 186 80 200 0 7 9 29 20 49 11 21 23 57 26 80 4 24 13 56
21 71 8 15 11 32 8 38 -4 5 -2 15 3 22 19 24 23 123 6 168 -18 50 -47 254 -39
278 2 9 -8 59 -23 111 -24 81 -42 116 -120 232 -50 76 -137 229 -194 340 -193
382 -201 403 -217 528 -5 41 -16 100 -25 130 -58 208 -69 266 -69 380 0 312
15 449 62 555 12 26 21 56 21 66 0 10 4 20 9 24 5 3 13 20 17 38 3 17 15 43
25 56 11 13 19 31 19 41 0 9 15 34 33 56 18 21 51 64 74 94 23 30 55 68 72 84
20 20 31 40 31 58 0 33 13 35 57 9 56 -35 133 -171 204 -364 16 -42 37 -94 48
-115 35 -67 49 -109 62 -173 6 -35 23 -98 37 -139 19 -57 27 -106 32 -205 9
-181 36 -223 123 -198 29 8 34 16 55 83 13 41 36 107 52 145 16 39 38 95 51
125 26 65 69 198 69 214 0 7 9 28 19 49 30 58 33 84 32 217 -1 69 3 148 9 175
24 116 30 177 21 216 -5 22 -11 42 -13 45 -2 2 -40 -14 -83 -36 -44 -22 -85
-40 -91 -40 -7 0 -38 -13 -69 -30 -31 -16 -63 -30 -70 -30 -28 0 -216 66 -300
105 -71 33 -148 65 -157 65 -5 0 -41 14 -80 31 -124 54 -418 82 -418 39 0 -10
56 -23 207 -50 127 -22 170 -40 183 -76 15 -37 13 -43 -17 -55 -114 -45 -249
-165 -271 -239 -6 -19 -35 -89 -65 -155 -128 -283 -155 -545 -92 -873 21 -103
25 -146 17 -154 -16 -16 -50 26 -99 123 -34 68 -44 101 -53 174 -6 50 -19 117
-30 150 -31 101 -80 321 -90 403 -5 42 -16 93 -24 114 -23 54 -36 121 -40 207
-10 195 -18 246 -53 334 -19 48 -42 125 -51 170 -19 91 -25 95 -100 77z m1748
-445 c7 -18 4 -35 -10 -67 -11 -24 -20 -56 -20 -72 0 -16 -11 -77 -25 -135
-13 -58 -34 -151 -45 -206 -39 -187 -62 -270 -88 -318 -40 -75 -52 -62 -83 93
-33 162 -43 198 -102 360 -43 122 -105 254 -146 315 -12 17 -21 33 -21 38 0
16 55 6 118 -22 144 -63 201 -63 317 0 38 21 76 39 83 39 7 0 17 -11 22 -25z"/>
<path d="M2290 6227 c-14 -7 -45 -26 -69 -41 -68 -43 -97 -49 -145 -27 -23 10
-47 25 -55 34 -19 24 -27 21 -41 -12 -10 -25 -9 -36 8 -74 11 -25 31 -52 44
-60 48 -32 69 -30 161 18 72 37 97 45 142 45 46 0 58 -4 81 -27 14 -16 37 -52
50 -81 30 -66 32 -165 4 -232 l-18 -45 -59 2 c-42 1 -74 10 -120 32 -34 17
-76 31 -94 31 -37 0 -122 -46 -163 -89 -26 -27 -28 -34 -18 -55 6 -14 9 -40 6
-58 -2 -18 1 -60 8 -93 12 -54 17 -62 50 -80 20 -11 40 -16 44 -12 4 4 2 24
-4 46 -7 21 -12 66 -12 99 0 55 3 63 25 78 25 16 52 16 110 -4 225 -75 231
-75 293 -8 58 63 97 183 97 296 -1 62 -6 94 -19 118 -21 41 -107 152 -116 152
-4 0 -27 13 -51 30 -48 33 -98 39 -139 17z"/>
<path d="M2280 6043 c-37 -13 -190 -107 -190 -117 0 -2 9 -24 20 -49 l20 -45
88 -5 c48 -3 104 -9 125 -15 37 -10 39 -9 58 21 28 47 25 101 -10 145 -16 20
-32 47 -36 60 -7 26 -15 26 -75 5z"/>
<path d="M7332 5607 c-29 -30 -32 -37 -23 -61 12 -29 23 -45 60 -82 13 -13 20
-24 16 -24 -5 0 0 -10 11 -22 19 -22 46 -75 58 -110 15 -48 52 0 81 107 10 33
24 75 31 93 12 28 12 40 2 70 -20 60 -23 62 -117 62 -86 0 -88 -1 -119 -33z"/>
<path d="M5260 5261 c-23 -6 -25 -11 -26 -74 -1 -78 8 -95 56 -103 28 -4 40 0
63 21 24 23 27 33 27 86 0 55 -2 60 -26 69 -28 11 -57 11 -94 1z"/>
<path d="M4510 5028 c-32 -33 -62 -98 -56 -115 10 -24 164 -13 182 12 21 28
17 60 -12 94 -32 39 -82 43 -114 9z"/>
<path d="M5355 5004 c-27 -7 -167 -66 -183 -77 -7 -5 -12 -15 -11 -21 5 -38
-17 -52 -123 -81 -81 -22 -163 -96 -229 -205 -28 -47 -53 -99 -56 -116 -6 -35
11 -74 31 -74 17 0 76 66 76 85 0 32 155 175 292 268 86 59 214 119 266 125
l43 5 -6 41 c-4 22 -8 42 -10 44 -5 6 -71 10 -90 6z"/>
<path d="M4372 4791 c-13 -3 -23 -10 -22 -16 0 -5 24 -37 53 -70 105 -120 172
-221 181 -271 4 -19 12 -34 18 -34 20 0 78 42 78 56 0 23 -26 69 -103 182 -69
101 -116 152 -142 152 -7 0 -19 2 -27 4 -7 2 -23 1 -36 -3z"/>
<path d="M4254 4450 c-12 -5 -27 -23 -33 -41 -10 -29 -9 -36 11 -58 13 -14 24
-27 24 -29 1 -2 57 -19 125 -38 109 -30 138 -44 139 -65 0 -12 -36 -38 -94
-68 -32 -17 -71 -42 -88 -56 -16 -13 -36 -29 -45 -33 -13 -8 -13 -13 -3 -33
30 -56 76 -54 130 5 31 34 60 51 135 81 53 21 123 43 155 50 57 12 62 11 106
-12 36 -19 56 -24 85 -19 65 10 87 26 115 82 25 49 26 58 16 93 -28 90 -63
106 -170 75 -71 -20 -80 -28 -84 -67 -3 -31 -4 -32 -58 -35 -31 -2 -69 3 -90
11 -19 8 -60 22 -90 32 -60 20 -154 68 -185 95 -23 20 -60 40 -72 39 -4 0 -18
-4 -29 -9z"/>
<path d="M6445 3270 c-165 -44 -226 -83 -412 -264 -142 -138 -156 -163 -173
-327 -8 -80 -7 -134 4 -243 8 -78 20 -195 26 -260 7 -66 14 -129 16 -140 3
-12 11 -82 19 -156 13 -130 19 -156 91 -365 9 -27 23 -57 29 -65 7 -8 16 -31
20 -50 18 -89 105 -280 156 -341 40 -48 42 -49 96 -49 l56 0 -7 31 c-3 17 -37
98 -76 181 -38 83 -81 194 -96 247 -14 53 -36 123 -49 156 -66 168 -86 227
-104 305 -47 203 -62 343 -49 446 5 38 10 123 12 189 1 80 8 137 19 170 9 28
24 75 32 105 21 77 67 134 187 235 142 119 160 127 289 133 84 4 127 0 213
-18 115 -25 133 -21 123 22 -5 19 -17 26 -59 36 -29 6 -78 19 -108 27 -72 20
-169 18 -255 -5z"/>
<path d="M4780 2881 c-187 -10 -262 -29 -424 -110 -107 -54 -132 -70 -134 -90
-2 -13 1 -28 7 -34 6 -6 11 -21 11 -33 0 -12 6 -27 14 -33 12 -10 27 -4 78 30
35 23 73 51 85 62 40 36 202 87 355 113 77 13 131 15 217 11 244 -14 373 -52
676 -198 44 -22 83 -39 88 -39 4 0 7 8 7 19 0 17 -90 93 -185 154 -49 32 -233
114 -295 132 -57 17 -312 25 -500 16z"/>
<path d="M5201 2636 c-82 -69 -214 -99 -319 -72 -65 16 -154 57 -185 84 -28
25 -137 8 -137 -22 0 -21 110 -107 173 -135 124 -56 161 -64 276 -59 86 4 117
10 165 32 32 14 62 26 66 26 8 0 74 42 153 96 20 14 35 30 32 34 -3 5 -36 19
-73 30 -37 11 -74 23 -83 26 -10 3 -37 -13 -68 -40z"/>
<path d="M4378 2556 c-31 -17 -60 -35 -64 -39 -4 -4 14 -25 39 -47 25 -22 56
-57 69 -78 12 -20 37 -57 56 -81 35 -46 119 -217 142 -286 7 -22 23 -65 35
-95 13 -30 26 -80 30 -110 4 -30 16 -90 26 -133 23 -89 40 -302 30 -362 l-6
-40 -220 -6 c-231 -7 -295 -17 -490 -75 -49 -14 -103 -30 -120 -34 -66 -16
-157 -48 -242 -87 -28 -12 -54 -23 -56 -23 -21 0 -326 -158 -355 -184 -20 -18
-75 -62 -122 -97 -101 -77 -144 -118 -166 -162 -9 -17 -31 -50 -49 -72 -17
-22 -37 -50 -44 -63 -11 -20 -10 -22 16 -22 80 -2 567 1 569 3 0 1 4 16 7 34
5 26 3 33 -13 38 -29 9 -15 29 59 84 117 87 453 238 616 277 175 42 607 94
775 94 138 0 368 -25 500 -53 63 -14 146 -30 184 -36 61 -11 168 -42 236 -69
14 -5 45 -18 70 -27 109 -43 271 -129 335 -180 73 -59 125 -74 125 -36 0 77
-27 105 -190 193 -136 73 -383 168 -439 168 -12 0 -34 6 -49 14 -15 7 -49 17
-77 20 -27 4 -66 11 -85 16 -19 5 -98 21 -175 35 -77 14 -162 31 -190 37 -78
19 -514 15 -649 -6 -60 -9 -114 -20 -119 -23 -5 -3 -64 -12 -131 -19 -66 -7
-163 -22 -214 -33 -113 -25 -317 -115 -513 -228 -42 -23 -79 -43 -83 -43 -9 0
-79 -48 -149 -103 -59 -45 -107 -51 -107 -14 0 28 41 86 96 138 41 39 273 181
315 194 13 4 38 15 55 25 33 19 123 51 194 70 25 6 70 22 100 35 30 12 84 30
120 39 36 10 79 22 95 28 52 18 246 48 299 47 28 -1 117 3 197 10 132 10 159
9 290 -9 150 -22 317 -40 579 -64 85 -8 171 -19 190 -25 19 -5 73 -20 120 -31
47 -12 96 -28 108 -37 13 -8 49 -23 80 -34 31 -11 80 -33 109 -49 29 -17 59
-30 66 -30 8 0 39 -18 71 -40 31 -22 63 -40 71 -40 7 0 20 -6 27 -12 7 -7 22
-20 32 -28 18 -14 19 -13 12 14 -9 36 -67 95 -121 125 -22 12 -69 40 -105 62
-81 50 -235 125 -275 135 -16 4 -46 15 -65 25 -94 48 -389 109 -549 114 -82 2
-107 6 -116 19 -24 33 -39 217 -27 338 17 170 75 386 138 510 66 132 194 263
312 321 48 24 50 40 10 70 -25 19 -29 19 -86 5 -34 -9 -93 -36 -135 -63 -201
-127 -294 -298 -352 -645 -8 -52 -20 -119 -26 -147 -6 -29 -12 -130 -13 -223
-2 -94 -6 -173 -9 -177 -3 -3 -22 -2 -42 1 -40 8 -38 -6 -40 206 -1 125 -17
248 -57 455 -18 93 -31 129 -85 233 -35 67 -89 160 -120 205 -59 86 -180 218
-198 216 -5 -1 -36 -16 -67 -33z"/>
</g>
</svg>
