<?xml version="1.0" standalone="no"?>
<!DOCTYPE svg PUBLIC "-//W3C//DTD SVG 20010904//EN"
 "http://www.w3.org/TR/2001/REC-SVG-20010904/DTD/svg10.dtd">
<svg version="1.0" xmlns="http://www.w3.org/2000/svg"
 width="862.000000pt" height="1064.000000pt" viewBox="0 0 862.000000 1064.000000"
 preserveAspectRatio="xMidYMid meet">
<metadata>
Created by potrace 1.15, written by Peter Selinger 2001-2017
</metadata>
<g transform="translate(0.000000,1064.000000) scale(0.100000,-0.100000)"
fill="#000000" stroke="none">
<path d="M6609 10226 c-2 -2 -722 -7 -1599 -11 -877 -3 -1696 -8 -1820 -10
-124 -2 -802 -4 -1507 -5 -705 -1 -1294 -5 -1310 -9 l-28 -7 2 -1200 c11
-5583 22 -8497 31 -8506 9 -8 111 -13 229 -10 l91 2 -4 42 c-2 24 1 69 7 101
5 32 12 70 15 85 7 46 22 125 33 172 13 60 68 220 82 236 6 7 12 28 14 46 4
48 15 88 36 135 10 24 19 58 19 77 0 36 23 137 36 158 4 6 6 30 5 52 -1 39 3
77 31 246 7 41 12 82 10 90 -3 27 20 154 38 205 36 100 41 148 40 405 -1 291
-1 312 0 343 0 12 1 105 1 207 0 102 2 248 3 326 1 78 -3 190 -10 250 -12 109
-40 269 -49 283 -2 4 -7 23 -10 42 -3 19 -14 75 -25 124 -17 81 -22 130 -36
344 -2 36 -8 90 -14 120 -5 31 -12 115 -16 186 -3 72 -8 148 -11 170 -3 22 -6
83 -8 135 -3 52 -8 142 -14 200 -5 58 -9 130 -9 161 1 31 -2 61 -6 67 -4 6 -6
40 -6 74 1 35 -3 88 -8 118 -5 30 -6 82 -2 115 6 49 4 67 -11 97 -11 22 -19
58 -19 87 0 53 -12 114 -37 193 -8 26 -12 51 -9 56 3 5 1 24 -5 43 -6 19 -15
66 -19 104 -17 137 -31 218 -40 235 -8 16 -17 64 -25 143 -2 17 -10 70 -19
116 -21 112 -8 301 25 362 6 12 13 64 14 114 2 51 6 102 10 115 9 28 14 60 21
135 3 33 9 73 15 88 5 18 5 45 0 70 -9 41 -12 75 -13 202 -1 52 5 71 45 150
25 50 49 104 53 120 8 34 44 117 55 125 3 3 9 22 13 42 4 21 12 43 19 50 7 7
21 40 31 73 41 137 142 301 275 449 74 82 95 99 176 146 17 10 57 34 90 54 54
33 118 56 360 128 39 11 89 27 113 34 24 8 48 12 53 9 5 -4 15 -3 22 2 15 9
14 9 112 26 44 7 89 19 101 25 11 6 74 28 140 50 65 22 160 55 209 75 50 19
110 41 135 48 25 7 90 40 145 74 55 34 132 78 170 100 39 21 72 41 75 45 8 11
128 70 195 95 77 29 263 114 292 132 16 11 42 13 105 9 46 -3 124 -7 173 -9
85 -3 158 -18 179 -38 6 -5 18 -9 27 -9 18 0 227 -104 312 -156 27 -16 73 -48
103 -71 29 -24 58 -43 64 -43 17 0 83 -37 108 -60 12 -11 22 -19 22 -16 0 2
28 -7 63 -22 l62 -26 540 -2 c530 -3 574 -4 725 -24 102 -13 364 -37 480 -45
98 -6 241 -33 250 -46 3 -5 21 -10 40 -13 89 -13 148 -32 324 -106 191 -80
318 -149 381 -209 33 -31 62 -60 64 -65 2 -5 25 -30 50 -55 52 -52 114 -126
120 -144 2 -7 15 -25 28 -41 27 -33 53 -89 58 -128 2 -15 11 -38 20 -52 9 -14
23 -44 30 -68 7 -24 25 -74 40 -113 51 -136 58 -161 61 -217 1 -31 7 -65 13
-77 6 -11 11 -34 11 -51 0 -17 7 -42 16 -55 12 -18 16 -50 15 -137 0 -62 1
-149 1 -193 6 -363 -19 -782 -51 -875 -5 -14 -16 -63 -25 -110 -26 -140 -65
-332 -77 -375 -31 -115 -27 -168 17 -240 7 -11 15 -36 19 -55 12 -54 9 -183
-4 -207 -6 -12 -11 -30 -11 -41 0 -19 -24 -85 -61 -169 -11 -24 -19 -48 -19
-53 0 -6 -4 -8 -10 -5 -6 3 -10 -4 -10 -18 0 -13 -10 -44 -23 -68 -21 -40 -39
-89 -69 -187 -6 -22 -6 -43 1 -65 6 -17 13 -54 16 -82 3 -27 8 -70 11 -95 3
-25 -1 -78 -9 -118 -14 -68 -20 -77 -81 -142 l-66 -70 4 -57 c3 -32 9 -59 15
-61 6 -2 11 -9 11 -16 0 -6 18 -33 40 -60 22 -26 40 -52 40 -57 0 -4 11 -25
25 -45 14 -20 25 -44 25 -52 0 -9 16 -46 35 -84 20 -38 33 -72 31 -77 -3 -5 1
-14 9 -21 18 -15 49 -97 65 -175 30 -141 36 -224 17 -261 -8 -16 -18 -58 -22
-94 -4 -35 -14 -75 -22 -87 -9 -13 -12 -30 -9 -39 3 -8 0 -27 -8 -42 -7 -15
-16 -43 -20 -62 -6 -32 -19 -65 -53 -132 -7 -14 -13 -33 -13 -41 0 -8 -13 -29
-29 -46 -15 -16 -34 -44 -41 -60 -7 -17 -18 -36 -26 -42 -8 -6 -14 -20 -14
-31 0 -11 -13 -32 -29 -48 -26 -27 -43 -54 -45 -73 -2 -13 -132 -154 -257
-277 -86 -85 -119 -125 -129 -155 -7 -22 -16 -44 -21 -49 -26 -28 6 -170 43
-192 8 -5 27 -27 43 -49 17 -22 32 -42 35 -45 3 -3 25 -32 50 -65 61 -82 71
-95 103 -128 15 -16 36 -46 46 -66 11 -20 52 -85 91 -145 40 -60 80 -131 90
-160 22 -66 19 -169 -8 -261 -21 -72 -76 -293 -87 -355 -9 -47 -66 -224 -74
-230 -3 -3 -7 -20 -8 -39 -1 -18 -7 -39 -13 -46 -26 -31 -47 -145 -42 -223 l2
-22 333 0 c182 0 379 3 436 7 l104 6 -7 321 c-11 583 -10 1318 3 1326 9 5 8
10 -4 20 -14 11 -15 39 -11 219 7 274 7 905 0 2241 -7 1169 -9 5095 -3 5412 1
103 1 189 -2 191 -5 6 -1725 18 -1730 13z"/>
<path d="M4750 8605 c-7 -8 -18 -15 -25 -15 -16 0 -26 -25 -19 -44 6 -17 -39
-53 -114 -90 -59 -30 -60 -46 -1 -46 24 0 73 -15 126 -39 49 -21 98 -42 110
-45 23 -7 213 -201 213 -217 0 -5 7 -9 15 -9 8 0 17 14 21 35 3 19 10 38 15
41 5 3 9 14 9 24 0 39 48 126 96 174 57 56 158 126 182 126 32 0 61 -12 66
-27 12 -30 -19 -71 -133 -177 -65 -60 -104 -120 -96 -146 3 -10 -1 -43 -10
-73 -9 -31 -15 -88 -15 -129 1 -40 -1 -100 -4 -133 -3 -33 -6 -64 -6 -70 0
-11 12 -83 35 -205 9 -47 19 -100 22 -118 3 -18 9 -35 14 -38 5 -3 9 -27 9
-54 0 -27 7 -75 15 -107 21 -80 19 -125 -5 -151 -24 -26 -38 -28 -46 -7 -3 8
-21 23 -39 34 -20 12 -38 33 -46 55 -7 20 -16 36 -20 36 -15 0 -31 -31 -26
-52 16 -68 38 -102 99 -156 35 -32 82 -78 103 -102 73 -84 70 -77 51 -105 -9
-14 -24 -25 -32 -25 -9 0 -52 34 -97 75 -75 70 -107 89 -107 64 0 -11 104
-133 155 -181 18 -17 29 -38 30 -55 0 -28 1 -28 56 -25 l56 4 11 -44 c10 -37
9 -45 -5 -55 -9 -7 -27 -13 -39 -13 -37 0 -266 -40 -314 -55 -25 -7 -69 -17
-97 -20 -62 -8 -96 -32 -124 -86 -18 -36 -19 -47 -9 -117 5 -42 13 -133 16
-202 3 -69 12 -177 20 -240 17 -141 40 -357 53 -510 6 -63 12 -126 15 -140 20
-116 27 -274 13 -294 -12 -16 -107 -28 -330 -43 -106 -6 -168 6 -191 38 -11
17 -16 17 -67 3 -91 -26 -100 -27 -125 -14 -19 10 -29 11 -46 2 -13 -7 -66
-13 -118 -14 l-95 -3 1 -35 c1 -19 7 -64 13 -100 16 -86 37 -218 56 -360 9
-63 23 -137 31 -164 8 -26 14 -72 14 -101 0 -29 4 -97 10 -151 22 -223 44
-484 46 -566 1 -48 12 -126 24 -174 12 -48 22 -102 22 -120 0 -42 13 -51 39
-28 22 20 26 54 6 54 -20 0 -38 47 -31 78 14 63 57 181 86 237 55 107 105 170
197 248 33 28 29 121 -9 196 -16 32 -27 61 -25 63 3 2 0 20 -5 38 -6 19 -7 43
-4 52 10 33 108 61 140 40 7 -4 30 -41 53 -82 32 -59 41 -86 41 -125 l1 -50
31 75 c17 41 30 84 30 95 -2 29 115 134 166 150 18 5 30 -1 57 -31 53 -57 47
-118 -16 -171 -36 -31 -66 -79 -83 -137 -13 -44 -13 -47 9 -63 12 -10 51 -53
85 -95 35 -43 66 -78 70 -78 5 0 18 19 29 41 29 56 132 190 171 222 16 14 55
41 85 59 30 18 55 38 55 44 0 6 -17 18 -37 28 -21 9 -102 52 -181 94 -117 63
-142 80 -140 96 2 15 14 22 43 28 22 5 58 17 80 28 22 11 100 34 174 53 74 18
136 38 138 44 3 7 -12 15 -34 18 -87 15 -276 87 -368 140 -33 19 -72 40 -87
46 -40 16 -36 40 23 135 11 18 15 35 10 38 -14 9 -79 -63 -107 -116 -25 -50
-70 -98 -91 -98 -42 0 -65 93 -35 139 10 14 27 43 37 65 11 21 54 74 95 117
72 75 124 109 170 109 36 0 81 30 92 61 10 30 21 37 133 85 22 10 67 20 99 23
l59 6 3 190 c3 220 9 296 28 333 7 15 16 44 20 66 4 21 11 46 16 55 5 9 23 51
41 93 17 43 54 115 81 160 28 46 70 119 94 162 44 80 95 135 125 136 17 0 69
-69 69 -91 0 -7 6 -20 14 -28 17 -19 49 -76 83 -146 77 -158 92 -200 99 -283
3 -42 19 -122 34 -177 16 -55 31 -120 35 -145 3 -25 13 -65 20 -90 8 -25 22
-79 31 -120 23 -102 13 -277 -22 -415 -38 -148 -51 -203 -65 -270 -7 -33 -20
-80 -29 -105 -10 -25 -24 -71 -31 -103 -7 -32 -16 -60 -21 -63 -4 -3 -8 -22
-8 -42 0 -20 -6 -47 -13 -59 -54 -99 -114 -188 -161 -241 -31 -35 -63 -79 -70
-97 -8 -18 -34 -52 -57 -76 -48 -48 -118 -109 -126 -109 -5 0 -74 -51 -83 -61
-25 -28 -222 -139 -248 -139 -8 0 -26 -9 -40 -21 l-27 -21 50 5 c68 7 105 17
126 35 10 9 43 23 73 32 49 16 231 127 280 172 11 10 23 18 27 18 4 0 14 6 21
13 7 6 34 27 58 46 58 45 76 61 191 173 112 109 133 136 190 243 23 44 51 93
63 110 12 16 26 37 31 46 6 9 18 28 29 43 30 42 106 329 108 406 0 8 6 37 14
63 8 30 11 71 8 105 -3 35 1 86 11 132 9 41 22 111 28 155 7 44 17 89 23 100
6 11 11 61 12 111 2 49 5 101 8 115 3 13 7 67 9 119 4 101 14 200 22 213 7 11
6 187 -1 194 -10 10 -7 51 4 58 13 8 13 81 -1 106 -14 26 -2 59 21 59 29 0 50
11 50 25 0 31 -227 80 -355 75 -172 -5 -258 -11 -320 -20 -38 -6 -86 -12 -106
-14 -20 -2 -42 -7 -48 -10 -6 -4 -11 -4 -11 0 0 3 -6 1 -14 -5 -7 -6 -53 -25
-102 -41 -80 -28 -298 -131 -382 -182 -45 -27 -82 -13 -82 31 0 26 38 84 71
111 103 82 299 196 354 206 22 4 56 14 75 22 45 19 142 42 152 36 4 -3 26 1
49 7 37 12 39 14 23 26 -10 7 -33 13 -51 13 -19 0 -47 7 -64 15 -16 9 -34 13
-39 10 -6 -3 -10 -2 -10 3 0 5 -27 15 -60 21 -59 12 -60 12 -136 -26 -60 -30
-89 -53 -137 -108 -34 -38 -62 -71 -63 -73 -1 -1 -14 -6 -31 -11 -26 -8 -29
-6 -31 18 -2 14 0 51 4 81 5 49 11 60 59 106 29 29 74 64 99 79 25 15 46 32
46 38 0 6 -19 29 -43 51 -29 28 -42 49 -42 66 3 49 18 135 30 170 15 43 13 61
-12 97 -17 24 -50 90 -108 213 -15 33 -12 164 4 184 16 19 55 21 69 4 5 -7 20
-45 32 -84 36 -112 67 -136 105 -78 8 13 20 24 25 24 14 0 100 60 100 70 0 11
-68 70 -82 70 -7 0 -27 10 -45 23 -64 43 -33 127 43 113 56 -11 99 -35 118
-66 20 -35 88 -90 110 -90 58 0 0 106 -86 160 -15 9 -37 28 -48 43 -18 22 -19
29 -8 47 7 11 18 20 25 20 6 0 13 6 16 13 2 7 22 12 51 12 39 0 51 -5 67 -25
10 -14 27 -34 38 -45 29 -30 51 -80 58 -130 8 -58 23 -71 60 -51 30 15 40 31
67 106 20 55 67 89 136 97 42 5 49 3 54 -15 5 -14 -2 -35 -19 -61 -14 -22 -25
-44 -25 -48 0 -3 -8 -15 -17 -25 -30 -33 0 -58 71 -59 10 0 35 11 56 25 21 13
55 28 76 32 22 3 43 9 48 12 30 18 160 -12 195 -44 20 -18 -3 -44 -39 -44 -37
0 -90 -11 -90 -19 0 -3 14 -14 31 -23 40 -23 99 -22 177 2 80 25 108 17 117
-37 10 -58 12 -62 42 -68 15 -3 44 -11 63 -17 19 -6 85 -12 145 -13 116 -2
155 -13 155 -44 0 -13 -10 -20 -30 -24 -40 -9 -38 -23 8 -45 103 -52 152 -91
152 -121 0 -21 -30 -34 -60 -28 -8 2 -33 7 -55 12 -49 10 -118 39 -154 64 -14
10 -44 24 -66 30 -22 6 -60 23 -85 39 -25 15 -63 36 -85 46 -22 10 -53 24 -69
32 -16 8 -34 14 -41 14 -7 0 -39 13 -71 29 -87 42 -163 68 -219 76 -27 4 -74
14 -105 24 -36 11 -83 16 -135 15 -81 -3 -280 -38 -299 -53 -6 -5 -37 -16 -68
-25 -32 -9 -69 -28 -84 -41 -15 -14 -43 -30 -63 -35 -20 -6 -58 -30 -86 -54
-43 -39 -47 -46 -35 -61 16 -20 50 -13 94 18 35 25 42 29 122 75 32 17 61 32
66 32 5 0 26 9 48 20 22 11 51 20 66 20 18 0 28 6 31 21 6 21 10 21 128 17 67
-3 128 -9 136 -14 8 -4 26 -7 42 -5 41 4 87 -9 87 -24 0 -15 6 -17 90 -35 30
-7 64 -16 75 -21 11 -5 43 -17 70 -28 120 -46 257 -119 352 -188 96 -69 104
-73 125 -60 29 18 125 22 144 7 24 -20 16 -50 -17 -68 -82 -45 -82 -50 -16
-121 49 -53 58 -94 26 -114 -13 -8 -33 -14 -44 -13 -31 3 -95 27 -95 35 0 3
-14 22 -31 41 -26 28 -34 32 -48 22 -16 -12 -43 -25 -91 -45 -59 -23 -77 -33
-105 -56 -16 -13 -43 -30 -60 -38 -16 -7 -43 -22 -60 -32 -42 -25 -196 -62
-247 -60 -47 2 -88 -7 -88 -21 0 -15 19 -21 73 -25 107 -6 230 -46 342 -108
152 -86 159 -96 107 -163 -21 -27 -45 -64 -52 -83 l-14 -35 54 -48 c29 -26 72
-57 94 -68 l40 -20 18 43 c9 23 17 58 17 78 1 44 20 149 30 169 5 9 12 34 15
55 4 22 25 74 46 115 21 41 57 113 80 159 24 46 53 92 65 103 12 11 31 37 40
59 10 21 22 39 27 39 4 0 8 8 8 17 0 9 11 29 25 43 15 15 29 46 34 75 5 28 16
63 25 79 13 26 13 33 0 65 -11 26 -13 57 -9 119 3 54 1 90 -6 105 -7 12 -13
62 -14 112 -1 63 -6 100 -18 122 -9 18 -17 39 -17 48 0 28 -82 218 -118 272
-34 53 -140 145 -197 170 -16 8 -37 18 -45 23 -8 5 -51 31 -95 57 -107 64
-153 90 -195 109 -19 9 -42 22 -50 29 -22 20 -272 104 -462 156 -27 8 -48 17
-48 22 0 4 -6 7 -12 5 -18 -3 -91 12 -103 22 -5 4 -25 10 -43 13 -18 3 -38 10
-45 15 -7 5 -46 17 -87 25 -41 9 -88 20 -104 27 -16 6 -84 20 -153 31 -68 11
-136 24 -150 30 -36 13 -153 18 -182 7 -14 -5 -28 -5 -35 1 -17 14 -388 27
-427 15 -9 -2 -22 -19 -29 -37 -35 -95 -39 -100 -73 -93 -42 8 -80 50 -67 74
13 23 50 120 50 132 0 15 -26 12 -40 -5z m1405 -551 c126 -5 166 -10 190 -23
17 -10 46 -24 65 -31 19 -7 66 -38 105 -69 97 -78 126 -99 155 -113 14 -7 32
-19 40 -25 213 -182 274 -231 281 -227 5 3 9 1 9 -4 0 -6 35 -30 78 -55 42
-25 86 -53 97 -63 25 -23 145 -54 213 -54 30 0 52 -5 52 -11 0 -5 5 -7 10 -4
6 4 5 -4 -1 -19 -7 -14 -19 -28 -28 -32 -9 -3 -72 -9 -142 -11 -147 -6 -239
10 -321 57 -29 16 -60 33 -68 36 -20 7 -175 86 -270 137 -258 138 -433 219
-475 218 -308 -5 -330 -7 -377 -28 -27 -12 -77 -52 -120 -96 -84 -85 -121
-102 -207 -94 -72 6 -155 48 -170 85 -6 15 -15 90 -20 167 -7 108 -6 144 4
160 7 11 16 31 20 45 13 43 26 47 161 55 113 6 132 5 143 -9 15 -18 59 -21
112 -6 19 5 66 12 103 14 37 2 70 7 74 11 4 4 34 4 67 1 33 -3 132 -9 220 -12z
m-1642 -3296 c27 -29 60 -69 73 -88 66 -97 80 -118 100 -160 16 -34 19 -50 12
-66 -10 -21 -66 -54 -93 -54 -15 0 -37 33 -33 48 6 18 -123 210 -176 262 -55
53 -71 92 -43 103 6 3 34 6 61 6 46 1 51 -2 99 -51z m-185 -293 c20 -9 46 -24
57 -35 26 -24 161 -86 245 -112 36 -11 75 -24 87 -28 16 -7 26 -4 39 11 9 10
14 19 11 19 -3 0 -1 13 4 30 11 32 28 39 151 65 54 12 58 11 76 -9 55 -59 65
-128 31 -200 -22 -49 -57 -71 -128 -82 -34 -5 -48 -3 -69 13 -15 11 -36 23
-48 27 -20 6 -129 -18 -148 -33 -6 -5 -29 -14 -51 -21 -66 -21 -117 -50 -157
-91 -21 -22 -45 -39 -52 -39 -27 0 -85 30 -96 49 -10 21 -4 51 11 51 5 0 26
15 46 34 21 18 48 37 61 40 12 4 40 19 62 34 40 25 51 49 28 56 -7 2 -42 12
-78 21 -132 35 -157 45 -178 74 -25 34 -28 47 -19 86 7 28 34 51 65 54 7 0 29
-6 50 -14z"/>
<path d="M3725 7638 c-147 -59 -269 -149 -425 -311 -29 -30 -185 -173 -253
-231 -37 -32 -88 -86 -114 -120 -26 -33 -80 -102 -120 -152 -40 -50 -73 -93
-73 -95 0 -2 16 -5 36 -7 20 -1 49 -12 66 -23 23 -17 28 -27 26 -51 -5 -52 20
-56 80 -15 63 43 147 84 213 103 27 8 49 19 49 24 0 12 -34 22 -52 15 -8 -3
-29 10 -51 35 -21 22 -44 40 -52 40 -20 0 -31 49 -16 69 6 9 19 28 29 43 19
31 43 36 62 12 8 -8 33 -27 57 -41 51 -30 72 -26 125 20 l37 32 -44 48 c-47
53 -66 118 -45 157 16 30 34 25 73 -23 29 -36 45 -46 91 -57 48 -11 59 -11 90
4 41 20 45 33 14 45 -42 16 -78 78 -69 119 1 7 -2 28 -8 45 -6 18 -7 48 -3 67
6 28 12 35 32 35 26 0 34 -12 71 -101 24 -60 64 -88 119 -82 27 2 36 8 38 26
2 14 -2 22 -11 22 -23 0 -57 45 -61 81 -2 19 -7 42 -11 51 -4 11 4 39 22 75
22 46 33 58 52 58 18 0 26 -9 39 -45 26 -70 69 -147 87 -153 22 -9 62 9 75 34
9 16 9 36 1 79 -10 50 -9 64 8 106 15 39 23 49 42 49 18 0 25 -6 27 -25 2 -14
7 -29 11 -35 4 -5 15 -31 25 -57 14 -39 22 -48 42 -48 14 0 27 7 31 17 4 9 32
42 64 73 67 66 92 67 94 4 1 -21 9 -55 19 -76 17 -35 19 -36 89 -43 40 -3 109
-13 155 -21 88 -16 105 -13 115 26 4 16 -15 29 -117 80 -67 33 -129 60 -137
60 -8 0 -32 9 -54 20 -21 11 -55 23 -74 26 -20 3 -58 12 -86 20 -47 12 -91 17
-262 29 -62 4 -77 0 -168 -37z"/>
<path d="M4953 7472 c-45 -2 -63 -7 -63 -16 0 -8 7 -16 15 -20 12 -4 14 -21
10 -91 -4 -83 -4 -85 20 -91 31 -8 55 1 55 20 0 9 -9 38 -20 66 -11 28 -20 59
-20 70 0 23 37 35 80 27 31 -7 43 2 32 20 -10 15 -39 19 -109 15z"/>
<path d="M1569 7226 c-2 -2 -18 -6 -35 -9 -40 -6 -81 -33 -89 -58 -4 -10 -22
-38 -41 -61 -19 -24 -38 -47 -42 -53 -10 -13 -24 -46 -27 -65 -5 -26 -34 -162
-50 -235 -33 -144 -40 -278 -19 -343 8 -24 12 -48 8 -53 -3 -6 -1 -38 5 -72
26 -149 50 -321 46 -328 -3 -4 2 -20 10 -35 8 -16 15 -37 15 -47 0 -9 15 -56
34 -105 19 -48 42 -114 51 -147 16 -58 63 -189 90 -250 58 -131 87 -186 118
-222 19 -24 37 -48 39 -54 2 -6 25 -13 51 -16 54 -6 57 1 33 78 -52 162 -50
142 -31 353 l18 194 -22 44 c-13 23 -40 66 -60 93 -21 28 -44 61 -51 75 -7 14
-43 72 -81 130 -42 65 -72 123 -79 154 -6 27 -14 54 -18 60 -3 6 -7 16 -8 21
-1 6 -11 44 -23 85 -21 77 -23 96 -23 215 0 105 3 139 12 150 5 6 8 21 8 35 0
52 17 110 33 110 5 0 15 11 21 25 19 42 127 89 208 91 105 3 113 -1 212 -99
139 -139 181 -250 155 -405 -4 -24 -15 -58 -24 -75 -10 -18 -22 -47 -29 -64
-15 -41 -121 -217 -142 -237 -42 -37 -96 70 -63 123 8 13 16 31 17 39 2 8 6
18 11 21 10 7 33 72 33 93 0 8 8 26 18 39 25 32 41 103 37 165 -4 60 -17 91
-53 119 -14 11 -41 35 -61 52 -41 37 -113 62 -158 56 -50 -8 -60 -45 -47 -176
3 -31 1 -70 -4 -85 -6 -17 -6 -35 -1 -45 5 -9 11 -47 14 -86 2 -38 11 -83 19
-100 9 -16 16 -39 16 -51 0 -29 33 -90 88 -163 25 -34 49 -64 53 -67 30 -24
102 -153 123 -223 26 -84 29 -142 25 -412 -2 -146 1 -163 36 -201 23 -24 41
-34 62 -34 53 0 93 -19 93 -45 0 -29 -53 -75 -86 -75 -14 0 -38 -7 -54 -15
-16 -8 -58 -18 -92 -22 l-63 -6 35 -13 c47 -17 120 -17 160 -1 61 26 151 128
209 238 82 156 215 278 302 279 14 0 43 -13 64 -30 21 -16 42 -30 46 -30 5 0
33 -24 62 -54 52 -53 55 -60 48 -123 -3 -29 -38 -33 -90 -11 -28 11 -54 18
-58 14 -3 -3 -1 -22 5 -42 9 -29 8 -41 -4 -59 -13 -21 -13 -29 6 -85 11 -34
36 -99 55 -145 19 -46 35 -92 35 -102 0 -36 62 -218 93 -273 28 -51 53 -90
193 -300 63 -93 72 -104 274 -308 91 -92 209 -200 262 -240 54 -40 98 -77 98
-82 0 -5 17 -32 38 -59 20 -28 46 -67 56 -88 11 -21 29 -51 41 -68 18 -25 31
-50 40 -75 1 -3 10 -23 19 -44 10 -22 19 -63 21 -90 2 -28 7 -59 10 -69 8 -20
12 -294 4 -347 -2 -19 -7 -40 -11 -45 -4 -6 -16 -47 -27 -90 -25 -96 -44 -149
-83 -231 -15 -34 -28 -65 -28 -68 0 -14 -43 -101 -53 -108 -6 -3 -12 -16 -14
-29 -5 -32 -77 -174 -111 -217 -16 -21 -38 -57 -49 -82 -12 -25 -30 -56 -42
-69 -12 -13 -21 -29 -21 -36 0 -6 -8 -29 -19 -51 -10 -21 -26 -55 -35 -74 -9
-20 -37 -60 -63 -89 -26 -29 -58 -70 -72 -91 -14 -21 -57 -71 -94 -110 -37
-40 -79 -89 -92 -110 -13 -21 -29 -41 -35 -45 -6 -3 -19 -23 -30 -43 -33 -60
-62 -107 -69 -112 -4 -3 -22 -27 -40 -53 -18 -27 -52 -68 -76 -91 -23 -24 -46
-53 -50 -65 -3 -12 -18 -29 -31 -38 -42 -27 -72 -103 -40 -103 14 0 106 93
106 107 0 4 15 25 33 45 17 20 81 93 141 162 60 69 113 126 117 126 5 0 16 14
24 31 9 16 24 38 33 48 67 71 107 120 118 146 7 17 22 36 33 43 12 7 21 19 21
27 0 7 10 21 21 29 12 8 19 21 16 29 -3 8 5 27 19 43 13 16 23 38 24 48 0 10
11 31 25 45 64 67 86 94 104 129 10 20 29 46 40 56 31 28 91 130 91 153 0 11
8 31 19 44 10 13 24 41 31 63 12 38 63 120 81 131 5 4 9 16 9 28 0 11 12 38
26 58 14 21 30 57 35 81 6 23 17 50 25 59 13 15 34 100 64 264 7 39 21 95 30
126 21 64 18 202 -5 304 -7 33 -13 74 -13 90 0 17 -10 57 -23 90 -25 64 -133
235 -147 235 -10 0 -131 155 -140 179 -9 25 -100 159 -153 226 -25 33 -53 80
-60 105 -7 25 -33 80 -56 123 -24 42 -43 82 -43 88 0 13 -29 67 -51 94 -22 28
-79 132 -79 146 0 6 -13 29 -29 52 -27 41 -115 281 -132 362 -17 83 -34 150
-41 161 -4 6 -10 25 -13 42 -3 17 -10 44 -16 59 -6 15 -21 80 -34 143 -12 63
-32 160 -43 215 -29 137 -52 289 -52 335 0 21 -16 87 -35 146 -19 58 -35 124
-35 145 0 21 -9 61 -20 90 -19 48 -20 53 -4 77 26 39 28 76 4 97 -18 16 -22
16 -37 3 -10 -8 -46 -23 -79 -32 -61 -18 -62 -18 -133 4 -39 12 -73 26 -76 31
-4 5 -14 9 -23 9 -18 0 -87 56 -154 125 -40 41 -73 85 -118 160 -54 90 -126
183 -186 240 -156 149 -212 199 -230 206 -20 8 -98 12 -105 5z m880 -996 c69
-53 141 -136 172 -200 29 -60 26 -170 -8 -262 -14 -40 -30 -77 -35 -82 -4 -6
-8 -17 -8 -26 0 -23 -80 -96 -114 -104 -20 -5 -59 4 -135 30 -115 40 -185 49
-202 24 -8 -13 -7 -90 3 -185 3 -26 -1 -30 -23 -33 -35 -4 -76 31 -88 76 -6
20 -12 66 -14 102 -3 36 -8 74 -12 86 -8 26 28 71 91 114 53 36 67 36 165 10
140 -39 188 -50 203 -44 19 7 39 88 37 154 -2 68 -18 123 -43 149 -10 11 -18
24 -18 29 0 14 -46 42 -69 42 -34 0 -148 -47 -204 -84 -70 -47 -179 32 -179
130 0 18 6 42 14 53 12 17 17 18 35 8 94 -55 100 -57 134 -45 18 6 58 28 88
50 52 35 60 38 117 35 46 -2 69 -9 93 -27z m-85 -176 c9 -8 16 -20 16 -26 0
-6 6 -19 13 -27 13 -15 32 -74 42 -128 2 -13 -1 -25 -6 -28 -5 -4 -7 -10 -5
-14 3 -4 1 -13 -4 -21 -10 -17 -63 -15 -135 4 -62 16 -105 19 -105 6 0 -6 -11
-10 -24 -10 -19 0 -29 11 -50 56 -15 31 -25 63 -22 70 9 22 125 94 184 113 72
24 77 24 96 5z"/>
<path d="M7595 6191 c-50 -21 -95 -120 -95 -211 0 -42 -14 -74 -47 -108 -12
-12 -17 -32 -14 -57 0 -5 -15 -20 -33 -33 -19 -13 -51 -40 -71 -59 -36 -35
-40 -36 -114 -37 -129 0 -178 25 -316 160 -66 64 -120 126 -126 144 -8 20 -17
30 -28 28 -22 -4 -26 -43 -7 -92 29 -75 16 -548 -16 -609 -5 -11 -12 -44 -14
-75 -3 -31 -10 -64 -15 -75 -6 -10 -8 -25 -5 -34 3 -8 2 -22 -3 -31 -5 -9 -12
-69 -16 -132 -4 -69 -13 -126 -22 -143 -8 -16 -12 -39 -9 -50 3 -11 -1 -35 -9
-53 -7 -18 -17 -55 -20 -81 -14 -107 -94 -394 -126 -455 -5 -10 -9 -31 -9 -47
0 -17 -5 -33 -10 -36 -6 -4 -19 -24 -30 -45 -11 -21 -25 -44 -32 -51 -7 -8
-44 -61 -82 -119 -69 -106 -142 -184 -271 -291 -38 -32 -101 -83 -138 -114
-37 -30 -110 -83 -162 -116 -80 -52 -99 -60 -125 -54 -28 6 -30 4 -30 -20 0
-26 -2 -27 -40 -21 -32 5 -51 1 -93 -21 l-52 -27 30 -5 c17 -4 89 -6 160 -5
125 1 162 7 250 43 62 26 78 31 93 31 10 0 35 9 57 20 22 11 44 20 50 20 15 0
221 156 304 230 90 80 136 142 152 203 6 26 15 47 20 47 4 0 11 10 15 23 6 19
34 82 99 222 15 32 63 167 72 200 2 11 9 29 14 40 9 19 44 202 55 290 3 22 11
60 19 85 7 25 18 70 24 100 22 114 69 298 95 370 8 25 18 56 21 70 5 27 78
111 110 127 11 6 55 11 98 12 68 1 85 -3 123 -25 92 -54 149 -149 169 -282 13
-90 33 -122 86 -141 25 -9 32 -6 64 24 39 38 39 39 25 116 -16 91 -20 197 -9
252 29 150 64 266 110 365 16 34 29 66 29 70 0 4 5 13 12 20 6 6 13 21 15 32
2 11 14 38 28 60 28 45 43 123 27 142 -5 7 -13 29 -17 48 -4 23 -25 54 -58 88
-74 77 -111 93 -162 73z m-15 -575 c19 -46 20 -88 2 -123 -7 -12 -12 -30 -12
-41 0 -17 -11 -51 -34 -102 -14 -34 -43 -74 -59 -84 -14 -9 -24 -4 -56 32 -21
23 -43 42 -49 42 -6 0 -31 19 -55 43 -43 40 -45 45 -52 114 -6 62 -4 73 12 87
91 80 102 84 221 78 l63 -4 19 -42z"/>
<path d="M3998 5934 c-3 -3 20 -55 52 -117 32 -62 61 -128 65 -147 4 -19 11
-41 16 -50 14 -26 79 -199 79 -211 0 -5 6 -31 14 -57 8 -26 22 -91 31 -144 10
-54 21 -98 26 -98 10 0 69 119 69 139 0 9 13 75 29 146 38 169 78 360 86 410
3 22 11 53 17 68 9 22 8 31 -1 37 -16 9 -77 -8 -113 -32 -14 -10 -41 -18 -60
-17 -18 0 -47 -3 -65 -6 -34 -7 -101 14 -194 61 -25 13 -48 21 -51 18z"/>
<path d="M7140 5156 c-14 -8 -32 -27 -40 -43 -8 -15 -20 -35 -26 -43 -7 -8
-17 -33 -23 -55 -6 -22 -17 -65 -26 -95 -38 -130 -65 -296 -80 -495 -5 -56
-15 -106 -27 -132 -11 -23 -21 -48 -22 -55 -16 -85 -131 -359 -189 -450 -19
-30 -49 -81 -67 -113 -75 -138 -123 -191 -280 -310 -36 -27 -69 -55 -75 -61
-20 -25 -131 -84 -157 -84 -15 0 -29 -4 -32 -9 -7 -10 -134 -61 -229 -90 -38
-12 -120 -31 -183 -42 -94 -16 -125 -18 -178 -9 -36 6 -72 13 -80 16 -25 10
-19 -14 8 -31 15 -10 52 -17 98 -19 42 -2 86 -10 103 -20 17 -9 44 -16 60 -16
46 0 174 -34 179 -47 3 -7 -8 -38 -25 -70 -25 -48 -36 -59 -62 -64 -18 -3 -43
0 -57 7 -14 6 -52 17 -85 24 -94 19 -158 41 -188 67 -16 13 -32 21 -37 18 -5
-3 -20 0 -34 6 -14 7 -33 8 -43 4 -31 -14 -45 -15 -142 -15 -68 -1 -98 3 -110
14 -16 14 -139 31 -211 29 -19 -1 -80 -8 -135 -16 -55 -8 -169 -24 -254 -36
-84 -12 -165 -28 -180 -35 -14 -8 -44 -17 -67 -20 -40 -7 -40 -7 -54 -69 -15
-69 -68 -235 -129 -404 -42 -118 -108 -258 -154 -330 -15 -24 -27 -47 -27 -51
0 -5 -11 -25 -23 -44 -23 -33 -38 -61 -128 -243 -24 -49 -47 -91 -51 -93 -5
-2 -8 -8 -8 -14 0 -6 -12 -27 -27 -47 -30 -38 -37 -50 -66 -100 -30 -53 -196
-258 -357 -441 -104 -118 -116 -143 -82 -173 27 -25 42 -21 95 22 87 72 527
281 592 281 14 0 25 4 25 9 0 5 19 12 43 16 23 4 89 21 147 39 213 67 229 69
498 66 208 -2 200 -8 196 138 -1 59 -3 107 -4 107 -1 0 -4 18 -6 40 -3 22 -12
72 -20 110 -8 39 -20 97 -25 130 -13 70 -48 173 -91 265 -32 70 -62 136 -72
160 -16 41 -138 199 -174 225 -48 35 -52 58 -14 78 15 8 51 27 79 43 l53 29
71 -70 c95 -94 172 -205 244 -350 33 -66 66 -126 73 -133 6 -7 12 -26 12 -42
0 -16 7 -55 15 -87 26 -103 54 -373 53 -500 -1 -68 0 -124 3 -127 2 -2 15 -6
29 -8 l24 -3 2 155 c1 85 6 182 12 215 6 33 13 74 16 90 17 101 37 205 47 235
6 19 14 51 19 70 14 65 55 165 72 178 9 6 19 25 23 40 5 27 136 172 155 172 5
0 35 18 66 40 61 43 103 58 172 62 35 1 48 -3 69 -25 23 -23 25 -29 15 -52 -6
-14 -16 -25 -22 -25 -6 0 -46 -24 -89 -52 -103 -69 -219 -210 -246 -298 -4
-14 -12 -31 -19 -39 -6 -8 -16 -32 -22 -55 -71 -251 -68 -235 -85 -397 -9 -90
-9 -123 5 -210 17 -107 27 -132 47 -112 12 12 127 6 145 -8 5 -5 26 -6 45 -3
19 3 53 1 75 -6 21 -6 62 -15 89 -20 103 -18 155 -31 182 -45 15 -8 37 -15 48
-15 11 0 40 -11 64 -25 23 -14 53 -25 66 -25 31 0 205 -88 278 -140 51 -37 57
-45 55 -74 -3 -42 4 -52 67 -87 62 -35 121 -96 131 -135 10 -37 -17 -56 -68
-48 l-39 7 7 -40 c12 -76 -41 -82 -131 -13 -49 38 -106 74 -135 86 -32 14 -96
45 -120 58 -65 36 -127 57 -183 63 -43 4 -81 16 -122 39 -42 23 -79 35 -125
39 -36 4 -83 12 -105 17 -77 20 -170 38 -196 38 -14 0 -29 3 -33 8 -4 4 -40 8
-79 9 -40 1 -137 4 -217 6 -80 3 -161 1 -180 -4 -19 -5 -102 -16 -185 -25
-211 -22 -296 -32 -325 -39 -14 -3 -46 -10 -71 -15 -26 -5 -73 -19 -105 -30
-33 -12 -81 -28 -109 -36 -53 -16 -131 -54 -180 -88 -39 -27 -143 -76 -161
-76 -8 0 -41 -19 -72 -42 -31 -23 -59 -44 -61 -45 -2 -2 2 -14 9 -28 11 -20
11 -30 1 -51 l-12 -27 1003 6 c552 4 1086 7 1188 8 102 1 343 -1 536 -6 l350
-8 -1 164 c-1 109 -6 176 -15 200 -12 33 -11 39 7 65 30 42 44 103 41 181 -1
37 3 82 9 98 6 17 18 59 26 95 15 64 38 135 64 197 7 17 13 37 13 45 0 7 7 22
15 32 8 11 15 28 15 37 0 9 18 52 40 94 22 43 39 79 38 80 -2 1 -17 11 -35 24
-18 12 -81 40 -140 62 -59 22 -130 52 -158 66 -55 28 -172 120 -209 164 -21
24 -65 133 -72 179 -2 8 -5 29 -9 45 -9 48 -12 149 -4 160 4 6 7 20 5 30 -3
20 35 138 59 185 7 14 18 38 26 53 7 15 51 65 98 110 73 70 104 91 201 139 63
31 131 59 150 63 19 4 41 12 48 17 12 10 104 34 170 45 33 5 33 5 27 52 -3 25
-13 70 -21 100 -14 47 -23 133 -24 213 0 15 -9 51 -21 80 -38 95 -27 360 18
449 13 26 23 55 23 64 0 10 22 52 49 94 198 311 259 505 216 686 -8 33 -15 74
-15 90 0 17 -10 49 -22 72 -21 39 -21 44 -7 59 9 8 31 16 49 17 47 3 60 28 34
64 -24 32 -58 39 -94 19z m-395 -1871 c22 -8 56 -15 76 -15 44 0 85 -47 75
-86 -6 -22 -10 -23 -59 -19 -28 3 -63 8 -77 11 -14 4 -89 9 -166 11 -125 5
-146 3 -185 -14 -78 -35 -274 -206 -306 -268 -15 -27 -34 -91 -64 -210 -11
-41 -21 -233 -22 -410 -1 -161 58 -433 130 -595 23 -53 83 -236 83 -255 0 -9
33 -92 74 -183 96 -216 96 -215 85 -235 -8 -13 -24 -17 -63 -17 -52 0 -55 1
-105 56 -53 57 -121 178 -121 214 0 11 -4 20 -8 20 -5 0 -14 17 -20 38 -6 20
-18 60 -27 87 -9 28 -23 72 -31 99 -7 27 -20 57 -29 66 -8 9 -15 30 -15 47 0
17 -7 36 -14 43 -17 14 -40 104 -44 175 -1 28 -4 75 -5 105 -2 30 -6 62 -9 70
-7 16 -23 182 -34 345 -8 107 -8 344 -2 410 6 56 39 126 74 155 17 14 54 52
83 84 29 32 79 80 110 105 177 146 262 180 451 180 84 0 138 -5 165 -14z
m-1596 -390 c16 -5 22 -5 18 2 -8 13 52 8 123 -9 45 -11 252 -108 322 -151 73
-45 157 -111 169 -134 10 -19 9 -26 -6 -43 -21 -23 -29 -25 -47 -7 -21 20
-228 117 -251 117 -7 0 -17 4 -23 9 -18 18 -203 75 -279 87 -11 2 -36 6 -55
10 -40 8 -300 8 -345 0 -16 -3 -77 -18 -135 -34 -106 -29 -196 -71 -302 -143
-32 -22 -64 -36 -72 -33 -8 3 -20 22 -27 42 -6 21 -15 41 -20 47 -31 33 18 78
156 144 50 24 98 47 108 52 17 9 58 19 162 40 28 5 106 7 175 4 77 -3 131 -1
140 5 17 12 151 8 189 -5z m167 -209 c27 -8 67 -19 89 -25 54 -14 58 -46 12
-79 -18 -12 -57 -40 -87 -62 -30 -21 -62 -39 -70 -40 -8 0 -40 -12 -70 -26
-47 -23 -72 -27 -173 -31 -108 -4 -125 -2 -194 22 -105 36 -149 60 -215 118
-82 71 -75 104 25 118 46 5 57 3 92 -21 72 -48 155 -81 214 -84 99 -6 205 30
286 98 36 30 30 29 91 12z"/>
<path d="M4627 3555 c-38 -16 -54 -32 -94 -101 -20 -35 -41 -64 -45 -64 -7 0
-17 -21 -77 -156 -26 -59 -29 -116 -8 -151 7 -11 62 -10 137 3 125 22 522 28
640 10 52 -8 111 -17 130 -19 19 -2 44 -8 55 -12 15 -7 13 -1 -10 23 -25 27
-37 32 -75 32 -25 0 -63 9 -85 19 -59 27 -144 87 -169 119 -11 15 -33 38 -49
51 -15 12 -46 55 -69 95 -23 39 -53 84 -67 100 -51 56 -146 79 -214 51z"/>
</g>
</svg>
