<?xml version="1.0" standalone="no"?>
<!DOCTYPE svg PUBLIC "-//W3C//DTD SVG 20010904//EN"
 "http://www.w3.org/TR/2001/REC-SVG-20010904/DTD/svg10.dtd">
<svg version="1.0" xmlns="http://www.w3.org/2000/svg"
 width="869.000000pt" height="1068.000000pt" viewBox="0 0 869.000000 1068.000000"
 preserveAspectRatio="xMidYMid meet">
<metadata>
Created by potrace 1.15, written by Peter Selinger 2001-2017
</metadata>
<g transform="translate(0.000000,1068.000000) scale(0.100000,-0.100000)"
fill="#000000" stroke="none">
<path d="M3655 9945 c-27 -7 -85 -28 -127 -45 -64 -27 -78 -37 -78 -55 0 -15
34 -59 98 -126 88 -94 100 -112 125 -181 47 -132 75 -239 91 -348 9 -58 20
-132 26 -165 5 -33 10 -86 10 -117 0 -31 7 -83 16 -115 9 -32 20 -102 24 -156
5 -54 11 -101 15 -105 3 -3 14 -1 23 5 19 12 19 0 7 368 -6 193 -5 244 9 316
9 47 16 112 16 145 0 41 6 69 20 92 11 18 20 39 20 46 0 7 8 24 18 37 11 13
24 39 30 56 17 49 70 122 105 144 48 29 100 25 139 -10 32 -29 32 -31 18 -58
-9 -15 -29 -34 -45 -41 -17 -8 -52 -42 -78 -77 -42 -55 -52 -79 -79 -182 -39
-149 -46 -231 -43 -468 2 -192 13 -330 28 -352 5 -7 17 -13 27 -13 20 0 25 20
35 155 7 90 59 335 80 374 7 14 49 61 92 104 78 76 80 78 144 86 35 5 52 9 37
10 -18 1 -28 7 -28 16 0 10 10 15 28 16 15 0 21 3 15 6 -23 9 -15 35 10 31 16
-2 22 -9 21 -25 0 -13 5 -23 13 -23 7 0 13 -9 13 -20 0 -16 7 -20 34 -20 25 0
36 -5 41 -19 3 -10 15 -21 25 -24 14 -3 20 -14 20 -31 0 -24 -3 -26 -52 -28
-98 -3 -123 -4 -146 -6 -13 -1 -45 -22 -71 -47 -82 -77 -145 -216 -155 -345
-11 -133 6 -161 88 -146 32 6 55 19 201 115 73 48 72 47 257 51 3 0 17 30 30
68 19 56 23 87 22 182 0 118 -2 126 -52 215 -31 54 -101 115 -133 115 -10 0
-28 8 -39 18 -14 11 -44 19 -93 22 l-72 5 -3 41 -3 41 60 6 c94 10 243 -27
296 -74 149 -133 173 -160 194 -225 24 -74 27 -158 6 -194 -8 -14 -14 -42 -15
-63 0 -23 -10 -52 -27 -78 -42 -64 -30 -73 105 -77 129 -3 122 -8 141 103 12
69 37 156 82 285 21 59 61 130 141 249 50 74 48 75 -228 83 -258 7 -400 25
-525 64 -65 21 -88 35 -151 93 -41 37 -101 83 -134 103 -97 58 -364 174 -440
192 -85 19 -209 20 -279 1z"/>
<path d="M3285 9792 c-27 -16 -95 -58 -150 -95 -55 -37 -106 -67 -112 -67 -29
0 -10 -28 26 -39 21 -6 42 -18 45 -26 3 -8 15 -15 26 -15 36 0 179 -79 254
-140 75 -61 141 -151 188 -257 11 -26 32 -65 45 -86 28 -44 58 -162 67 -261 8
-79 28 -173 45 -204 6 -11 11 -32 11 -46 0 -19 5 -26 20 -26 17 0 20 7 20 46
0 161 -73 463 -155 638 -20 44 -35 94 -39 131 -8 91 -31 144 -92 215 -67 78
-98 130 -115 190 -19 70 -26 73 -84 42z"/>
<path d="M2695 9494 c-150 -15 -218 -29 -235 -49 -16 -19 -1 -45 26 -45 13 0
33 -9 45 -21 18 -18 24 -19 50 -9 32 14 68 -1 157 -63 105 -73 362 -364 420
-473 30 -58 71 -208 78 -284 11 -133 9 -130 106 -130 57 1 89 5 102 15 11 8
32 15 47 15 20 0 37 11 62 40 19 22 41 40 49 40 31 0 40 27 34 92 -8 75 -23
115 -109 298 -24 52 -48 105 -52 118 -58 189 -210 336 -385 373 -53 11 -72 21
-104 54 -36 35 -45 39 -96 41 -30 1 -118 -4 -195 -12z"/>
<path d="M5575 9476 c-13 -13 -27 -37 -30 -53 -7 -33 -8 -35 -57 -99 -50 -66
-92 -171 -129 -323 -16 -69 -37 -147 -46 -174 -22 -61 -14 -69 75 -74 80 -4
86 0 102 72 26 112 55 195 100 281 66 128 147 244 168 244 10 0 28 9 40 20 12
11 30 20 40 20 39 0 82 22 82 41 0 17 -5 19 -35 13 -30 -5 -40 -2 -70 25 -34
30 -39 31 -126 31 -82 0 -92 -2 -114 -24z"/>
<path d="M6025 9429 c-20 -18 -52 -56 -71 -86 -20 -29 -44 -59 -54 -66 -51
-36 -144 -167 -199 -281 -97 -201 -112 -237 -106 -255 4 -15 89 -43 226 -74
73 -16 90 -7 135 75 30 57 75 111 204 242 241 248 281 287 328 327 46 39 52
65 25 98 -25 29 -219 52 -258 31 -23 -12 -35 -12 -93 3 -89 23 -95 22 -137
-14z"/>
<path d="M6734 9365 c-18 -8 -55 -40 -82 -72 -109 -124 -274 -308 -419 -467
-84 -91 -153 -172 -153 -180 0 -24 29 -39 108 -57 42 -10 111 -32 152 -49 89
-38 153 -58 200 -62 33 -3 35 -1 41 35 4 24 19 52 42 75 19 20 65 83 101 139
54 82 91 125 192 217 118 108 132 117 232 160 59 24 119 49 135 55 15 6 27 17
27 26 0 42 -297 162 -445 180 -33 3 -69 8 -80 10 -11 2 -34 -3 -51 -10z"/>
<path d="M2255 9335 c-102 -18 -267 -73 -289 -95 -6 -6 -20 -10 -32 -10 -28 0
-124 -75 -124 -96 0 -12 6 -15 23 -9 35 11 130 1 277 -29 152 -32 326 -116
377 -183 16 -20 46 -55 69 -79 36 -39 154 -240 154 -263 0 -5 14 -14 31 -21
23 -10 72 -11 196 -7 92 4 169 9 171 12 21 21 -148 324 -224 402 -24 24 -44
48 -44 53 0 10 -71 95 -127 153 -21 20 -56 46 -79 57 -31 16 -43 28 -48 50 -4
22 -13 31 -33 36 -32 6 -38 9 -73 29 -31 18 -128 18 -225 0z"/>
<path d="M1560 9050 c-14 -5 -57 -18 -96 -30 -52 -14 -86 -32 -125 -64 -82
-68 -191 -202 -230 -283 -11 -23 -24 -45 -29 -48 -4 -3 -11 -18 -15 -34 -3
-16 -15 -37 -27 -47 -20 -19 -78 -136 -78 -159 0 -7 -22 -71 -50 -143 -49
-129 -60 -184 -39 -197 6 -4 20 2 32 13 35 31 137 97 197 127 30 15 62 33 70
40 17 13 115 64 170 87 19 8 66 29 103 47 38 19 126 53 195 77 117 40 135 44
228 44 136 0 202 -13 311 -63 67 -30 93 -47 97 -63 10 -40 34 -36 73 12 40 48
159 144 179 144 24 0 24 35 -1 109 -32 96 -113 208 -170 235 -22 10 -53 25
-70 33 -41 20 -145 53 -169 53 -11 0 -38 9 -60 19 -51 24 -112 41 -151 41 -19
0 -36 9 -50 24 -19 23 -28 25 -145 30 -69 3 -136 1 -150 -4z"/>
<path d="M7425 9044 c-22 -8 -69 -22 -103 -31 -99 -25 -163 -65 -239 -151 -38
-42 -85 -99 -103 -127 -19 -27 -55 -72 -81 -100 -75 -81 -159 -188 -159 -203
0 -13 140 -84 192 -97 23 -6 29 -3 37 17 8 23 89 68 120 68 6 0 51 22 100 50
49 27 113 57 143 66 29 9 78 25 108 35 39 12 95 19 182 21 119 3 127 2 150
-19 27 -25 54 -30 61 -10 7 19 -17 88 -49 139 -16 25 -51 83 -79 128 -52 85
-194 231 -225 229 -8 0 -33 -7 -55 -15z"/>
<path d="M7675 8463 c-41 -5 -158 -35 -170 -43 -5 -4 -37 -13 -70 -20 -84 -19
-102 -29 -172 -103 -76 -79 -80 -103 -25 -143 20 -15 62 -52 94 -82 53 -51 58
-54 95 -48 134 21 164 19 292 -18 218 -64 231 -61 231 49 0 35 4 75 10 89 6
17 5 42 -5 81 -8 31 -15 74 -15 96 0 49 -21 91 -57 117 -28 19 -143 34 -208
25z"/>
<path d="M1770 8293 c-177 -45 -264 -76 -360 -126 -47 -25 -112 -53 -145 -62
-33 -10 -69 -21 -80 -26 -11 -4 -40 -14 -65 -21 -37 -10 -65 -32 -153 -119
-95 -96 -107 -111 -106 -141 1 -18 -6 -69 -15 -113 -54 -266 -65 -376 -65
-621 0 -238 11 -427 29 -494 5 -19 14 -71 20 -115 6 -44 19 -118 30 -165 39
-170 59 -340 64 -573 3 -126 8 -245 11 -265 3 -21 7 -55 9 -77 5 -55 33 -219
58 -345 25 -125 42 -274 63 -550 9 -113 24 -250 35 -305 10 -55 26 -140 35
-190 9 -49 19 -103 21 -120 2 -16 8 -68 14 -115 8 -63 22 -723 20 -955 -3
-408 -16 -678 -41 -838 -6 -38 -9 -71 -6 -74 3 -2 1 -19 -4 -36 -5 -18 -16
-75 -25 -127 -23 -131 -56 -256 -102 -380 -22 -58 -49 -148 -61 -200 -30 -126
-76 -273 -106 -335 -14 -27 -25 -62 -25 -77 0 -15 -5 -30 -10 -33 -6 -3 -10
-14 -10 -24 0 -10 -11 -35 -25 -55 l-24 -36 22 -5 c12 -3 283 -4 601 -3 l580
3 7 29 c5 16 28 50 52 75 50 52 106 129 132 181 10 19 44 75 77 124 60 90 85
142 94 206 3 19 9 53 14 75 25 117 21 258 -13 465 -8 47 -13 114 -11 149 4 64
-23 251 -51 363 -9 32 -13 63 -10 68 3 5 -5 45 -18 87 -14 43 -32 114 -41 158
-49 248 -55 265 -156 435 -31 52 -66 122 -79 155 -41 108 -84 180 -109 183
-19 3 -23 9 -20 32 1 17 -13 59 -39 111 -60 120 -121 252 -137 296 -23 64 -93
209 -134 280 -22 38 -60 127 -85 198 -25 72 -55 155 -66 185 -12 30 -33 89
-47 130 -14 41 -29 79 -34 85 -5 6 -18 42 -29 80 -11 39 -36 124 -56 190 -19
66 -38 138 -41 160 -3 22 -21 96 -39 165 -69 255 -75 290 -105 541 -4 42 -15
123 -24 180 -8 57 -20 172 -26 254 -6 83 -16 166 -21 185 -5 19 -9 56 -9 82 0
26 -4 69 -9 95 -29 149 -42 221 -39 229 1 5 -1 29 -5 53 -4 24 -4 48 1 55 5 6
12 36 16 66 4 30 11 59 16 65 5 6 10 40 12 75 3 64 3 65 33 68 46 6 55 19 55
81 0 58 2 62 69 157 86 122 164 196 302 287 57 38 156 74 244 87 28 4 95 15
150 24 74 12 131 14 222 9 115 -6 123 -5 128 13 4 10 11 27 16 36 5 10 9 30 9
45 0 40 46 160 75 199 14 18 25 37 25 42 0 8 -73 62 -84 62 -3 0 -35 14 -71
31 -104 48 -219 59 -325 32z"/>
<path d="M7621 7796 c-28 -30 -51 -58 -51 -61 0 -3 6 -18 14 -33 8 -15 17 -54
21 -87 9 -72 31 -180 39 -193 3 -6 27 -22 54 -38 26 -15 70 -51 97 -80 85 -90
124 -71 126 59 0 45 3 162 5 260 l4 177 -32 14 c-65 27 -106 36 -165 36 -60 0
-60 0 -112 -54z"/>
<path d="M1870 7662 c-8 -5 -58 -12 -110 -15 -139 -9 -193 -23 -310 -80 -84
-41 -118 -64 -170 -117 -88 -88 -160 -198 -160 -242 0 -19 -4 -38 -9 -43 -14
-14 -41 -123 -41 -162 0 -19 -6 -44 -14 -56 -21 -33 -35 -118 -41 -247 -11
-243 -5 -357 24 -456 5 -17 6 -52 4 -78 -4 -29 0 -62 10 -89 8 -23 20 -77 26
-120 6 -43 16 -87 21 -97 6 -10 10 -31 10 -46 0 -33 16 -86 41 -135 11 -20 19
-50 19 -65 0 -16 9 -42 20 -59 11 -16 20 -46 20 -65 0 -20 7 -46 16 -58 24
-34 51 -122 65 -208 6 -44 20 -95 29 -114 9 -19 20 -55 23 -79 3 -24 17 -66
31 -93 15 -28 26 -66 26 -88 0 -22 4 -41 9 -44 5 -3 12 -23 16 -43 6 -32 42
-122 88 -220 5 -12 7 -40 4 -63 -5 -37 -1 -45 38 -91 33 -38 45 -63 54 -109 6
-32 18 -64 26 -70 8 -7 15 -22 15 -34 0 -11 7 -32 15 -46 25 -45 53 -104 61
-130 3 -14 15 -37 25 -52 11 -14 19 -40 19 -58 0 -30 61 -160 107 -229 13 -19
23 -41 23 -50 0 -9 14 -34 30 -55 17 -22 30 -48 30 -58 0 -10 4 -18 9 -18 6 0
11 -15 13 -32 2 -25 10 -36 31 -46 17 -8 35 -29 44 -50 8 -21 28 -52 44 -70
16 -18 29 -38 29 -44 0 -6 16 -26 35 -44 20 -18 35 -41 35 -54 0 -12 17 -41
37 -64 27 -31 43 -64 59 -122 20 -71 46 -154 76 -239 6 -16 14 -55 18 -85 3
-30 11 -73 18 -95 11 -41 29 -153 57 -355 9 -63 23 -149 31 -190 8 -41 14 -88
13 -105 0 -16 5 -57 11 -90 18 -97 23 -179 25 -380 1 -173 -1 -193 -19 -228
-21 -40 -15 -69 16 -75 17 -3 114 111 195 231 68 100 143 195 206 258 26 27
47 56 47 65 0 14 76 125 143 209 13 17 52 73 87 125 34 52 71 107 80 121 23
33 55 106 64 144 4 17 14 37 21 45 26 29 85 161 100 223 8 34 35 130 61 212
73 241 74 243 74 366 0 121 -23 257 -53 316 -10 18 -17 38 -17 46 0 25 -91
132 -169 199 -41 34 -80 70 -88 78 -7 8 -42 48 -78 88 -36 40 -92 94 -125 119
-33 25 -72 60 -87 79 -14 19 -54 56 -88 84 -46 36 -72 65 -93 107 -55 109
-109 208 -140 261 -18 29 -32 55 -32 57 0 3 -19 40 -43 82 -23 43 -51 110 -61
148 -11 39 -24 81 -31 95 -26 54 -54 149 -69 240 -24 143 -26 149 -45 155 -31
10 -51 -6 -81 -64 -39 -76 -169 -215 -234 -249 -44 -23 -63 -27 -141 -27 -76
0 -102 5 -165 29 -116 45 -194 82 -211 103 -25 28 -109 151 -109 159 0 4 -11
21 -24 38 -42 56 -50 76 -123 306 -8 25 -29 68 -48 96 -20 30 -36 71 -41 100
-4 27 -17 78 -29 114 -13 36 -28 103 -34 150 -7 47 -16 110 -22 140 -5 30 -11
89 -13 130 -3 41 -13 121 -25 177 l-20 102 24 77 c13 42 26 95 30 118 3 23 10
61 15 86 5 25 14 83 21 130 9 69 23 108 71 208 56 114 64 127 119 167 87 64
161 72 189 20 11 -20 21 -25 50 -25 20 0 59 -11 86 -25 59 -30 66 -31 89 -5
40 44 60 30 178 -121 29 -36 78 -97 110 -135 56 -66 117 -169 117 -197 0 -19
62 -97 77 -97 22 0 27 30 10 64 -8 18 -31 100 -51 182 -20 82 -41 163 -46 179
-6 17 -17 77 -25 135 -9 58 -25 150 -38 205 -20 91 -24 101 -52 114 -35 17
-163 26 -185 13z"/>
<path d="M7657 7243 c-3 -5 -8 -35 -11 -68 -4 -33 -14 -97 -23 -142 l-17 -81
30 -42 c96 -134 114 -166 114 -197 0 -32 -1 -33 -42 -33 -41 0 -46 4 -96 66
-34 42 -59 64 -70 62 -23 -4 -147 -256 -208 -418 -70 -190 -102 -335 -87 -398
4 -19 11 -23 36 -20 29 3 31 7 43 64 7 34 17 70 22 80 19 35 52 127 52 143 0
9 7 27 16 39 18 26 78 30 111 7 17 -12 28 -13 50 -4 15 6 48 9 73 7 38 -3 46
0 56 20 6 12 20 33 31 45 37 41 47 82 33 134 -11 48 -11 48 24 80 19 18 42 43
50 55 22 35 46 172 47 275 l1 92 -71 89 c-78 99 -153 164 -164 145z"/>
<path d="M5980 7089 c-25 -16 -55 -47 -68 -68 -22 -37 -22 -41 -8 -82 9 -25
13 -59 10 -79 -7 -47 18 -104 56 -126 19 -12 32 -29 36 -49 4 -20 18 -38 41
-52 29 -20 48 -23 129 -23 91 0 96 1 120 28 13 15 33 36 43 47 52 56 95 192
89 284 -4 73 -25 87 -68 46 -26 -25 -30 -35 -25 -60 16 -77 16 -93 0 -135 -9
-25 -19 -57 -22 -71 -3 -17 -16 -32 -36 -41 -47 -22 -96 -31 -110 -20 -7 5
-31 13 -54 17 -28 4 -43 12 -43 21 0 8 -9 32 -20 54 -15 29 -18 45 -11 62 6
16 4 44 -6 82 -21 82 -16 89 60 83 50 -3 69 0 100 16 64 36 46 57 -50 57 -40
0 -62 5 -80 20 -14 11 -28 20 -32 20 -3 0 -26 -14 -51 -31z"/>
<path d="M7448 5653 c-18 -5 -23 -16 -33 -80 -9 -60 14 -93 66 -93 64 0 94 71
44 104 -14 9 -25 25 -25 36 0 22 -26 38 -52 33z"/>
<path d="M7329 4904 l-24 -25 22 -17 c35 -27 44 -64 34 -139 -8 -60 -21 -107
-51 -178 -5 -11 -11 -36 -13 -55 -6 -48 -52 -153 -91 -209 -18 -25 -41 -60
-52 -77 -10 -17 -30 -49 -44 -70 -14 -22 -38 -79 -54 -129 -16 -49 -35 -106
-43 -125 -23 -59 -1 -331 34 -410 25 -56 89 -244 98 -287 8 -41 2 -45 -200
-126 -88 -36 -213 -90 -277 -122 -107 -52 -123 -63 -182 -130 -90 -103 -125
-177 -134 -289 -8 -93 4 -143 42 -175 10 -8 24 -27 32 -42 16 -32 103 -94 179
-128 28 -13 73 -33 100 -46 28 -13 76 -35 107 -50 31 -14 80 -29 110 -32 44
-5 60 -13 97 -48 l45 -43 -19 -28 c-33 -49 -185 -365 -216 -447 -26 -70 -45
-156 -54 -242 -2 -17 -8 -50 -15 -74 -6 -24 -9 -50 -6 -58 3 -8 2 -33 -4 -57
-19 -87 -14 -348 8 -407 6 -13 19 -33 31 -43 19 -17 43 -19 263 -23 133 -2
251 -2 263 1 25 6 29 38 10 77 -11 21 -12 35 -5 54 6 15 10 37 10 50 0 24 21
100 51 180 10 28 25 79 33 115 63 275 80 340 104 394 22 51 26 75 26 151 1
107 -1 111 -113 285 -30 47 -73 103 -96 126 -42 42 -75 81 -175 203 -82 100
-110 187 -110 341 0 97 3 116 26 164 32 69 153 202 215 238 74 43 283 254 308
312 12 27 21 54 21 62 0 7 11 34 25 60 14 26 25 59 25 74 0 25 16 70 55 155
13 27 25 70 52 175 17 68 -16 270 -62 375 -7 17 -23 59 -35 95 -13 36 -29 79
-36 95 -7 17 -33 80 -59 140 -25 61 -55 125 -66 143 -23 39 -25 110 -5 167 18
51 4 76 -48 87 -20 4 -50 15 -66 23 -38 20 -42 19 -71 -11z"/>
</g>
</svg>
