<?xml version="1.0" standalone="no"?>
<!DOCTYPE svg PUBLIC "-//W3C//DTD SVG 20010904//EN"
 "http://www.w3.org/TR/2001/REC-SVG-20010904/DTD/svg10.dtd">
<svg version="1.0" xmlns="http://www.w3.org/2000/svg"
 width="873.000000pt" height="1064.000000pt" viewBox="0 0 873.000000 1064.000000"
 preserveAspectRatio="xMidYMid meet">
<metadata>
Created by potrace 1.15, written by Peter Selinger 2001-2017
</metadata>
<g transform="translate(0.000000,1064.000000) scale(0.100000,-0.100000)"
fill="#000000" stroke="none">
<path d="M4205 7262 c-16 -1 -81 -12 -144 -24 -103 -19 -121 -26 -185 -69 -39
-26 -81 -58 -93 -71 -12 -12 -28 -28 -35 -33 -90 -71 -167 -136 -231 -198
l-78 -75 72 -4 c72 -3 74 -2 123 36 28 22 83 68 121 102 72 63 204 156 252
177 16 7 39 20 53 29 61 40 148 59 284 61 112 1 139 -2 186 -20 30 -12 75 -25
100 -28 51 -8 185 -50 215 -67 11 -7 49 -27 85 -45 113 -59 145 -78 153 -90 4
-7 12 -13 17 -13 8 0 33 -25 149 -150 l42 -45 19 24 c31 37 54 11 -213 242
-124 107 -131 112 -208 134 -31 9 -65 23 -75 30 -11 8 -27 15 -37 15 -17 0
-23 2 -82 32 -72 37 -195 58 -330 55 -71 -1 -143 -3 -160 -5z"/>
<path d="M3351 6584 c-18 -8 -32 -17 -30 -19 2 -2 51 -13 109 -24 58 -12 128
-28 155 -37 54 -17 197 -83 205 -94 3 -3 28 -17 55 -30 54 -26 145 -90 145
-102 0 -4 17 -17 38 -28 57 -32 134 -86 167 -118 47 -45 137 -68 167 -43 9 8
36 21 60 29 53 18 338 245 338 269 0 15 124 130 162 149 17 9 42 14 57 11 15
-3 33 -2 40 3 9 5 -4 13 -39 23 -51 15 -55 15 -79 -4 -14 -11 -62 -46 -106
-79 -44 -33 -102 -78 -130 -100 -45 -37 -178 -109 -208 -114 -7 -1 -23 -12
-35 -24 -13 -13 -34 -22 -52 -22 -35 0 -156 59 -380 185 -174 98 -276 137
-430 165 -123 23 -163 24 -209 4z"/>
<path d="M4593 5102 c-43 -7 -121 -120 -107 -155 7 -20 49 -27 120 -20 67 6
94 24 94 62 0 55 -62 121 -107 113z"/>
</g>
</svg>
